<svg width="38" height="38" viewBox="0 0 38 38" fill="none" xmlns="http://www.w3.org/2000/svg">
<path d="M19 37C28.9411 37 37 28.9411 37 19C37 9.05887 28.9411 1 19 1C9.05887 1 1 9.05887 1 19C1 28.9411 9.05887 37 19 37Z" stroke="white"/>
<path d="M18.7857 21.5714C21.9811 21.5714 24.5714 18.9811 24.5714 15.7857C24.5714 12.5904 21.9811 10 18.7857 10C15.5904 10 13 12.5904 13 15.7857C13 18.9811 15.5904 21.5714 18.7857 21.5714Z" stroke="white" stroke-linecap="round"/>
<path d="M31 32C30.2922 29.9917 28.7324 28.2173 26.5628 26.9516C24.3932 25.686 21.7348 25 19 25C16.2652 25 13.6068 25.686 11.4372 26.9516C9.2675 28.2173 7.70782 29.9917 7 32" stroke="white" stroke-linecap="round"/>
</svg>
