<svg width="1509" height="1313" viewBox="0 0 1509 1313" fill="none" xmlns="http://www.w3.org/2000/svg">
<g filter="url(#filter0_f_333_936)">
<path fill-rule="evenodd" clip-rule="evenodd" d="M712.168 683.258C729.372 681.891 745.923 686.176 762.414 690.97C782.609 696.841 807.233 698.321 819.509 714.463C831.749 730.559 833.112 754.541 824.469 772.571C815.959 790.325 792.043 795.257 775.279 806.736C765.254 813.601 753.816 818.043 745.475 826.663C732.104 840.481 732.018 870.652 712.168 871.961C693.059 873.222 690.263 843.276 676.04 831.245C665.625 822.434 647.05 822.999 640.525 811.355C633.988 799.688 642.081 785.711 643.165 772.571C644.16 760.53 642.988 748.684 646.656 737.107C651.067 723.184 654.959 708.153 666.607 698.579C678.95 688.434 695.813 684.557 712.168 683.258Z" fill="#65CF53"/>
</g>
<g filter="url(#filter1_f_333_936)">
<path fill-rule="evenodd" clip-rule="evenodd" d="M764.208 457.854C803.104 463.696 839.569 468.827 873.63 491.173C925.433 525.156 999.954 548.742 1006.55 616.835C1013.17 685.173 945.44 727.849 901.019 773.951C859.986 816.538 816.483 889.091 764.208 868.351C709.723 846.734 741.644 736.047 697.654 693.266C643.9 640.99 529.608 692.878 505.583 616.835C483.86 548.077 565.705 487.877 621.858 453.359C665.364 426.616 715.279 450.505 764.208 457.854Z" fill="white"/>
</g>
<g filter="url(#filter2_f_333_936)">
<path fill-rule="evenodd" clip-rule="evenodd" d="M764.208 457.854C803.104 463.696 839.569 468.827 873.63 491.173C925.433 525.156 999.954 548.742 1006.55 616.835C1013.17 685.173 945.44 727.849 901.019 773.951C859.986 816.538 816.483 889.091 764.208 868.351C709.723 846.734 741.644 736.047 697.654 693.266C643.9 640.99 529.608 692.878 505.583 616.835C483.86 548.077 565.705 487.877 621.858 453.359C665.364 426.616 715.279 450.505 764.208 457.854Z" fill="white"/>
</g>
<g filter="url(#filter3_f_333_936)">
<path fill-rule="evenodd" clip-rule="evenodd" d="M822.269 546.831C840.1 552.743 856.224 561.324 869.192 573.415C880.032 583.52 879.32 599.362 889.773 609.766C906.719 626.632 940.698 630.528 948.066 651.915C955.311 672.945 940.973 695.983 925.47 713.385C909.493 731.32 886.947 752.579 860.916 749.744C832.688 746.669 825.421 711.841 800.645 699.788C784.183 691.779 761.562 702.268 745.545 693.615C727.664 683.956 707.224 668.459 709.123 650.347C711.126 631.243 748.794 628.179 754.352 609.604C762.041 583.911 723.517 551.485 744.515 532.078C762.986 515.006 796.988 538.45 822.269 546.831Z" fill="#0665FD"/>
</g>
<defs>
<filter id="filter0_f_333_936" x="0" y="0" width="100%" height="100%" filterUnits="userSpaceOnUse" color-interpolation-filters="sRGB">
<feFlood flood-opacity="0" result="BackgroundImageFix"/>
<feBlend mode="normal" in="SourceGraphic" in2="BackgroundImageFix" result="shape"/>
<feGaussianBlur stdDeviation="86" result="effect1_foregroundBlur_333_936"/>
</filter>
<filter id="filter1_f_333_936" x="0" y="0" width="100%" height="100%" filterUnits="userSpaceOnUse" color-interpolation-filters="sRGB">
<feFlood flood-opacity="0" result="BackgroundImageFix"/>
<feBlend mode="normal" in="SourceGraphic" in2="BackgroundImageFix" result="shape"/>
<feGaussianBlur stdDeviation="90.5" result="effect1_foregroundBlur_333_936"/>
</filter>
<filter id="filter2_f_333_936" x="0" y="0" width="100%" height="100%" filterUnits="userSpaceOnUse" color-interpolation-filters="sRGB">
<feFlood flood-opacity="0" result="BackgroundImageFix"/>
<feBlend mode="normal" in="SourceGraphic" in2="BackgroundImageFix" result="shape"/>
<feGaussianBlur stdDeviation="90.5" result="effect1_foregroundBlur_333_936"/>
</filter>
<filter id="filter3_f_333_936" x="0" y="0" width="100%" height="100%" filterUnits="userSpaceOnUse" color-interpolation-filters="sRGB">
<feFlood flood-opacity="0" result="BackgroundImageFix"/>
<feBlend mode="normal" in="SourceGraphic" in2="BackgroundImageFix" result="shape"/>
<feGaussianBlur stdDeviation="120" result="effect1_foregroundBlur_333_936"/>
</filter>
</defs>
</svg>
