<svg width="983" height="901" viewBox="0 0 983 901" fill="none" xmlns="http://www.w3.org/2000/svg">
<g filter="url(#filter0_f_333_936)">
<path fill-rule="evenodd" clip-rule="evenodd" d="M449.168 477.258C466.372 475.891 482.923 480.176 499.414 484.97C519.609 490.841 544.233 492.321 556.509 508.463C568.749 524.559 570.112 548.541 561.469 566.571C552.959 584.325 529.043 589.257 512.279 600.736C502.254 607.601 490.816 612.043 482.475 620.663C469.104 634.481 469.018 664.652 449.168 665.961C430.059 667.222 427.263 637.276 413.04 625.245C402.625 616.434 384.05 616.999 377.525 605.355C370.988 593.688 379.081 579.711 380.165 566.571C381.16 554.53 379.988 542.684 383.656 531.107C388.067 517.184 391.959 502.153 403.607 492.579C415.95 482.434 432.813 478.557 449.168 477.258Z" fill="#65CF53"/>
</g>
<g filter="url(#filter1_f_333_936)">
<path fill-rule="evenodd" clip-rule="evenodd" d="M501.208 251.854C540.104 257.696 576.569 262.827 610.63 285.173C662.433 319.156 736.954 342.742 743.549 410.835C750.168 479.173 682.44 521.849 638.019 567.951C596.986 610.538 553.483 683.091 501.208 662.351C446.723 640.734 478.644 530.047 434.654 487.266C380.9 434.99 266.608 486.878 242.583 410.835C220.86 342.077 302.705 281.877 358.858 247.359C402.364 220.616 452.279 244.505 501.208 251.854Z" fill="white"/>
</g>
<g filter="url(#filter2_f_333_936)">
<path fill-rule="evenodd" clip-rule="evenodd" d="M501.208 251.854C540.104 257.696 576.569 262.827 610.63 285.173C662.433 319.156 736.954 342.742 743.549 410.835C750.168 479.173 682.44 521.849 638.019 567.951C596.986 610.538 553.483 683.091 501.208 662.351C446.723 640.734 478.644 530.047 434.654 487.266C380.9 434.99 266.608 486.878 242.583 410.835C220.86 342.077 302.705 281.877 358.858 247.359C402.364 220.616 452.279 244.505 501.208 251.854Z" fill="white"/>
</g>
<g filter="url(#filter3_f_333_936)">
<path fill-rule="evenodd" clip-rule="evenodd" d="M559.269 340.831C577.1 346.743 593.224 355.324 606.192 367.415C617.032 377.52 616.32 393.362 626.773 403.766C643.719 420.632 677.698 424.528 685.066 445.915C692.311 466.945 677.973 489.983 662.47 507.385C646.493 525.32 623.947 546.579 597.916 543.744C569.688 540.669 562.421 505.841 537.645 493.788C521.183 485.779 498.562 496.268 482.545 487.615C464.664 477.956 444.224 462.459 446.123 444.347C448.126 425.243 485.794 422.179 491.352 403.604C499.041 377.911 460.517 345.485 481.515 326.078C499.986 309.006 533.988 332.45 559.269 340.831Z" fill="#0665FD"/>
</g>
<defs>
<filter id="filter0_f_333_936" x="203" y="305" width="536" height="533" filterUnits="userSpaceOnUse" color-interpolation-filters="sRGB">
<feFlood flood-opacity="0" result="BackgroundImageFix"/>
<feBlend mode="normal" in="SourceGraphic" in2="BackgroundImageFix" result="shape"/>
<feGaussianBlur stdDeviation="86" result="effect1_foregroundBlur_333_936"/>
</filter>
<filter id="filter1_f_333_936" x="58" y="54" width="867" height="793" filterUnits="userSpaceOnUse" color-interpolation-filters="sRGB">
<feFlood flood-opacity="0" result="BackgroundImageFix"/>
<feBlend mode="normal" in="SourceGraphic" in2="BackgroundImageFix" result="shape"/>
<feGaussianBlur stdDeviation="90.5" result="effect1_foregroundBlur_333_936"/>
</filter>
<filter id="filter2_f_333_936" x="58" y="54" width="867" height="793" filterUnits="userSpaceOnUse" color-interpolation-filters="sRGB">
<feFlood flood-opacity="0" result="BackgroundImageFix"/>
<feBlend mode="normal" in="SourceGraphic" in2="BackgroundImageFix" result="shape"/>
<feGaussianBlur stdDeviation="90.5" result="effect1_foregroundBlur_333_936"/>
</filter>
<filter id="filter3_f_333_936" x="206" y="80" width="721" height="704" filterUnits="userSpaceOnUse" color-interpolation-filters="sRGB">
<feFlood flood-opacity="0" result="BackgroundImageFix"/>
<feBlend mode="normal" in="SourceGraphic" in2="BackgroundImageFix" result="shape"/>
<feGaussianBlur stdDeviation="120" result="effect1_foregroundBlur_333_936"/>
</filter>
</defs>
</svg>
