<svg width="14" height="14" viewBox="0 0 14 14" fill="none" xmlns="http://www.w3.org/2000/svg">
<path d="M12.2142 10.8942C12.302 10.7112 12.3474 10.5175 12.3474 10.3214C12.3474 10.1896 12.3218 10.0582 12.2591 9.91738L12.2594 9.91727L12.2543 9.9071C12.2212 9.84108 12.1595 9.73922 12.0041 9.63256L9.9946 8.2068L9.99312 8.20576C9.86011 8.11283 9.73499 8.04266 9.61179 7.99202L9.61126 7.99181C9.59823 7.98649 9.58584 7.98104 9.57074 7.97439C9.55681 7.96826 9.53881 7.96032 9.52039 7.95299C9.48251 7.93792 9.43054 7.92024 9.3673 7.91512C9.23661 7.90454 9.11876 7.95163 9.00121 8.02284C8.84931 8.10062 8.72099 8.21088 8.59566 8.33592C8.59545 8.33613 8.59524 8.33634 8.59503 8.33655L8.13695 8.78776C8.13679 8.78792 8.13663 8.78808 8.13646 8.78824C7.97699 8.9429 7.72151 8.98521 7.52619 8.91627L7.37937 8.85114C7.15337 8.72904 6.8803 8.53672 6.57099 8.2746C6.28627 8.03184 5.97624 7.74633 5.59849 7.37533C5.30594 7.0773 5.01331 6.76134 4.70854 6.40944C4.43462 6.08944 4.24363 5.82481 4.12781 5.61344L4.0665 5.46045C4.03608 5.34175 4.03003 5.28858 4.03003 5.23628C4.03003 5.08313 4.08368 4.95386 4.18684 4.85089L4.18687 4.85093L4.19028 4.8474L4.64295 4.37749C4.77343 4.24703 4.87778 4.11698 4.9513 3.99275C5.01829 3.8834 5.0538 3.77275 5.0538 3.65814C5.0538 3.56243 5.02208 3.45468 4.98604 3.36834L4.98608 3.36833L4.98431 3.36429C4.93218 3.24535 4.85476 3.12074 4.76409 2.99771L3.36006 1.01638L3.36006 1.01638L3.35939 1.01544C3.27437 0.896637 3.16834 0.807809 3.0375 0.746867L3.03753 0.746801L3.03199 0.744381C2.90802 0.690245 2.77107 0.656977 2.62905 0.656977C2.21507 0.656977 1.84726 0.839761 1.51742 1.16152C1.21517 1.44406 0.999781 1.75777 0.864215 2.10228C0.724217 2.44875 0.658645 2.81309 0.658645 3.1986C0.658645 3.8 0.80101 4.44388 1.07828 5.09803L1.0784 5.09831C1.35935 5.75888 1.75094 6.44042 2.24527 7.11885C2.73752 7.79443 3.29702 8.45102 3.91149 9.07048L3.91326 9.07225C4.52777 9.67948 5.19149 10.2439 5.87411 10.7411C6.54165 11.2284 7.23073 11.6256 7.91727 11.9122C8.98594 12.3674 10.0294 12.4925 10.9147 12.1245C11.2601 11.9825 11.5628 11.7665 11.8343 11.4629C11.9907 11.2928 12.1133 11.1088 12.2142 10.8942ZM12.2142 10.8942C12.214 10.8946 12.2138 10.8949 12.2136 10.8953L11.9884 10.787L12.2146 10.8932C12.2145 10.8936 12.2143 10.8939 12.2142 10.8942ZM1.23061 0.872125L1.23067 0.872193L1.23554 0.867394C1.66134 0.447903 2.13341 0.25 2.62905 0.25C2.82901 0.25 3.03498 0.296507 3.2073 0.377444L3.20729 0.37745L3.20898 0.378227C3.40676 0.469338 3.5695 0.603509 3.68724 0.779784L3.68715 0.779843L3.69136 0.785769L5.09677 2.76298L5.09676 2.76299L5.09818 2.76495C5.21611 2.9275 5.30148 3.07833 5.35868 3.22365L5.35854 3.22371L5.36199 3.23165C5.42975 3.38774 5.46247 3.53522 5.46247 3.67023C5.46247 3.84975 5.41083 4.02942 5.30435 4.20655L5.30423 4.20648L5.30017 4.21377C5.22394 4.35073 5.10104 4.50777 4.93613 4.67236L4.93609 4.67232L4.93236 4.67621L4.52043 5.10552L4.41584 5.21451L4.46369 5.35779C4.47541 5.39289 4.48795 5.41791 4.49493 5.43182L4.49547 5.4329L4.49512 5.43307L4.50203 5.44514C4.58438 5.58898 4.73968 5.81941 5.02557 6.15438L5.02555 6.1544L5.02774 6.15689C5.32584 6.49695 5.60799 6.80928 5.89137 7.09829L5.89134 7.09832L5.89478 7.1017C6.25327 7.45345 6.55596 7.73739 6.84282 7.974C7.1945 8.26953 7.43556 8.42842 7.59384 8.50741L7.74991 8.5853L7.87689 8.4657L8.30699 8.06059L8.30706 8.06067L8.31219 8.05555C8.48759 7.88047 8.64893 7.75919 8.79547 7.68354L8.80394 7.67916L8.81206 7.67415C9.07159 7.51402 9.4103 7.47889 9.76565 7.62556C9.90653 7.68512 10.0602 7.76705 10.227 7.88349C10.2272 7.88366 10.2275 7.88383 10.2277 7.884L12.2374 9.30994L12.2374 9.31L12.2423 9.31332C12.4291 9.43928 12.5588 9.59511 12.6353 9.77511C12.7154 9.97845 12.75 10.1581 12.75 10.3335C12.75 10.5853 12.6922 10.8395 12.5797 11.0802C12.4631 11.3295 12.3197 11.544 12.1374 11.7425L12.1363 11.7437C11.813 12.1004 11.4678 12.3486 11.0712 12.508L11.0706 12.5083C10.6826 12.6654 10.2602 12.75 9.81358 12.75C9.169 12.75 8.48141 12.5963 7.76063 12.2921C7.0537 11.9923 6.33715 11.579 5.63524 11.0745C4.93689 10.562 4.26216 9.98991 3.62306 9.36404C2.99053 8.72661 2.4177 8.05357 1.91058 7.36288C1.39882 6.64999 0.991041 5.941 0.70284 5.26007C0.398586 4.53579 0.249977 3.84323 0.249977 3.1986C0.249977 2.75759 0.329159 2.34125 0.48098 1.95388C0.636267 1.56099 0.886929 1.19267 1.23061 0.872125Z" stroke="#B4D1FF" stroke-width="0.5"/>
</svg>
