<svg width="2" height="8" viewBox="0 0 2 8" fill="none" xmlns="http://www.w3.org/2000/svg">
<g clip-path="url(#clip0_344_934)">
<path fill-rule="evenodd" clip-rule="evenodd" d="M1 -4C1.55228 -4 2 -3.55228 2 -3L2 -1.05263C2 -0.500347 1.55228 -0.0526316 1 -0.0526316C0.447715 -0.0526315 1.52975e-07 -0.500347 1.28834e-07 -1.05263L4.37114e-08 -3C1.95703e-08 -3.55228 0.447715 -4 1 -4ZM1 1.8421C1.55229 1.8421 2 2.28982 2 2.8421L2 6.73684C2 7.28913 1.55229 7.73684 1 7.73684C0.447716 7.73684 4.93463e-07 7.28913 4.69322e-07 6.73684L2.99078e-07 2.8421C2.74937e-07 2.28982 0.447715 1.8421 1 1.8421ZM1 9.63158C1.55229 9.63158 2 10.0793 2 10.6316L2 14.5263C2 15.0786 1.55229 15.5263 1 15.5263C0.447716 15.5263 8.33952e-07 15.0786 8.09811e-07 14.5263L6.39567e-07 10.6316C6.15426e-07 10.0793 0.447716 9.63158 1 9.63158ZM1 17.4211C1.55229 17.4211 2 17.8688 2 18.4211L2 22.3158C2 22.8681 1.55229 23.3158 1 23.3158C0.447716 23.3158 1.17444e-06 22.8681 1.1503e-06 22.3158L9.80055e-07 18.4211C9.55914e-07 17.8688 0.447716 17.4211 1 17.4211ZM1 25.2105C1.55229 25.2105 2 25.6582 2 26.2105L2 30.1053C2 30.6575 1.55229 31.1053 1 31.1053C0.447717 31.1053 1.51493e-06 30.6575 1.49079e-06 30.1053L1.32054e-06 26.2105C1.2964e-06 25.6582 0.447716 25.2105 1 25.2105ZM1 33C1.55229 33 2 33.4477 2 34L2 37.8947C2 38.447 1.55229 38.8947 1 38.8947C0.447717 38.8947 1.85542e-06 38.447 1.83128e-06 37.8947L1.66103e-06 34C1.63689e-06 33.4477 0.447717 33 1 33ZM1 40.7895C1.55229 40.7895 2 41.2372 2 41.7895L2 45.6842C2 46.2365 1.55229 46.6842 1 46.6842C0.447717 46.6842 2.19591e-06 46.2365 2.17177e-06 45.6842L2.00152e-06 41.7895C1.97738e-06 41.2372 0.447717 40.7895 1 40.7895ZM1 48.5789C1.55229 48.5789 2 49.0267 2 49.5789L2 53.4737C2 54.026 1.55229 54.4737 1 54.4737C0.447718 54.4737 2.5364e-06 54.026 2.51225e-06 53.4737L2.34201e-06 49.5789C2.31787e-06 49.0267 0.447718 48.5789 1 48.5789ZM1 56.3684C1.55229 56.3684 2 56.8161 2 57.3684L2 61.2632C2 61.8154 1.55229 62.2632 1 62.2632C0.447718 62.2632 2.87688e-06 61.8154 2.85274e-06 61.2632L2.6825e-06 57.3684C2.65836e-06 56.8161 0.447718 56.3684 1 56.3684ZM1 64.1579C1.55229 64.1579 2 64.6056 2 65.1579L2 69.0526C2 69.6049 1.55229 70.0526 1 70.0526C0.447718 70.0526 3.21737e-06 69.6049 3.19323e-06 69.0526L3.02299e-06 65.1579C2.99885e-06 64.6056 0.447718 64.1579 1 64.1579ZM1 71.9474C1.55229 71.9474 2 72.3951 2 72.9474L2 76.8421C2 77.3944 1.55229 77.8421 1 77.8421C0.447719 77.8421 3.55786e-06 77.3944 3.53372e-06 76.8421L3.36348e-06 72.9474C3.33934e-06 72.3951 0.447719 71.9474 1 71.9474ZM1 79.7368C1.55229 79.7368 2 80.1846 2 80.7368L2 84.6316C2 85.1839 1.55229 85.6316 1 85.6316C0.447719 85.6316 3.89835e-06 85.1839 3.87421e-06 84.6316L3.70397e-06 80.7368C3.67982e-06 80.1846 0.447719 79.7368 1 79.7368ZM1 87.5263C1.55229 87.5263 2 87.974 2 88.5263L2 92.4211C2 92.9733 1.55229 93.4211 1 93.4211C0.447719 93.4211 4.23884e-06 92.9733 4.2147e-06 92.4211L4.04445e-06 88.5263C4.02031e-06 87.974 0.447719 87.5263 1 87.5263ZM1 95.3158C1.55229 95.3158 2 95.7635 2 96.3158L2 100.211C2 100.763 1.55229 101.211 1 101.211C0.44772 101.211 4.57933e-06 100.763 4.55519e-06 100.211L4.38494e-06 96.3158C4.3608e-06 95.7635 0.44772 95.3158 1 95.3158ZM1 103.105C1.55229 103.105 2 103.553 2 104.105L2 108C2 108.552 1.55229 109 1 109C0.44772 109 4.91982e-06 108.552 4.89568e-06 108L4.72543e-06 104.105C4.70129e-06 103.553 0.44772 103.105 1 103.105ZM1.00001 110.895C1.55229 110.895 2.00001 111.342 2.00001 111.895L2.00001 115.789C2.00001 116.342 1.55229 116.789 1.00001 116.789C0.447721 116.789 5.26031e-06 116.342 5.23616e-06 115.789L5.06592e-06 111.895C5.04178e-06 111.342 0.44772 110.895 1.00001 110.895ZM1.00001 118.684C1.55229 118.684 2.00001 119.132 2.00001 119.684L2.00001 123.579C2.00001 124.131 1.55229 124.579 1.00001 124.579C0.447721 124.579 5.60079e-06 124.131 5.57665e-06 123.579L5.40641e-06 119.684C5.38227e-06 119.132 0.447721 118.684 1.00001 118.684ZM1.00001 126.474C1.55229 126.474 2.00001 126.921 2.00001 127.474L2.00001 131.368C2.00001 131.921 1.55229 132.368 1.00001 132.368C0.447721 132.368 5.94128e-06 131.921 5.91714e-06 131.368L5.7469e-06 127.474C5.72276e-06 126.921 0.447721 126.474 1.00001 126.474ZM1.00001 134.263C1.55229 134.263 2.00001 134.711 2.00001 135.263L2.00001 139.158C2.00001 139.71 1.55229 140.158 1.00001 140.158C0.447722 140.158 6.28177e-06 139.71 6.25763e-06 139.158L6.08739e-06 135.263C6.06324e-06 134.711 0.447721 134.263 1.00001 134.263ZM1.00001 142.053C1.55229 142.053 2.00001 142.5 2.00001 143.053L2.00001 145C2.00001 145.552 1.55229 146 1.00001 146C0.447722 146 6.53714e-06 145.552 6.513e-06 145L6.42787e-06 143.053C6.40373e-06 142.5 0.447722 142.053 1.00001 142.053Z" fill="white"/>
<path fill-rule="evenodd" clip-rule="evenodd" d="M1 -4C1.55228 -4 2 -3.55228 2 -3L2 -1.05263C2 -0.500347 1.55228 -0.0526316 1 -0.0526316C0.447715 -0.0526315 1.52975e-07 -0.500347 1.28834e-07 -1.05263L4.37114e-08 -3C1.95703e-08 -3.55228 0.447715 -4 1 -4ZM1 1.8421C1.55229 1.8421 2 2.28982 2 2.8421L2 6.73684C2 7.28913 1.55229 7.73684 1 7.73684C0.447716 7.73684 4.93463e-07 7.28913 4.69322e-07 6.73684L2.99078e-07 2.8421C2.74937e-07 2.28982 0.447715 1.8421 1 1.8421ZM1 9.63158C1.55229 9.63158 2 10.0793 2 10.6316L2 14.5263C2 15.0786 1.55229 15.5263 1 15.5263C0.447716 15.5263 8.33952e-07 15.0786 8.09811e-07 14.5263L6.39567e-07 10.6316C6.15426e-07 10.0793 0.447716 9.63158 1 9.63158ZM1 17.4211C1.55229 17.4211 2 17.8688 2 18.4211L2 22.3158C2 22.8681 1.55229 23.3158 1 23.3158C0.447716 23.3158 1.17444e-06 22.8681 1.1503e-06 22.3158L9.80055e-07 18.4211C9.55914e-07 17.8688 0.447716 17.4211 1 17.4211ZM1 25.2105C1.55229 25.2105 2 25.6582 2 26.2105L2 30.1053C2 30.6575 1.55229 31.1053 1 31.1053C0.447717 31.1053 1.51493e-06 30.6575 1.49079e-06 30.1053L1.32054e-06 26.2105C1.2964e-06 25.6582 0.447716 25.2105 1 25.2105ZM1 33C1.55229 33 2 33.4477 2 34L2 37.8947C2 38.447 1.55229 38.8947 1 38.8947C0.447717 38.8947 1.85542e-06 38.447 1.83128e-06 37.8947L1.66103e-06 34C1.63689e-06 33.4477 0.447717 33 1 33ZM1 40.7895C1.55229 40.7895 2 41.2372 2 41.7895L2 45.6842C2 46.2365 1.55229 46.6842 1 46.6842C0.447717 46.6842 2.19591e-06 46.2365 2.17177e-06 45.6842L2.00152e-06 41.7895C1.97738e-06 41.2372 0.447717 40.7895 1 40.7895ZM1 48.5789C1.55229 48.5789 2 49.0267 2 49.5789L2 53.4737C2 54.026 1.55229 54.4737 1 54.4737C0.447718 54.4737 2.5364e-06 54.026 2.51225e-06 53.4737L2.34201e-06 49.5789C2.31787e-06 49.0267 0.447718 48.5789 1 48.5789ZM1 56.3684C1.55229 56.3684 2 56.8161 2 57.3684L2 61.2632C2 61.8154 1.55229 62.2632 1 62.2632C0.447718 62.2632 2.87688e-06 61.8154 2.85274e-06 61.2632L2.6825e-06 57.3684C2.65836e-06 56.8161 0.447718 56.3684 1 56.3684ZM1 64.1579C1.55229 64.1579 2 64.6056 2 65.1579L2 69.0526C2 69.6049 1.55229 70.0526 1 70.0526C0.447718 70.0526 3.21737e-06 69.6049 3.19323e-06 69.0526L3.02299e-06 65.1579C2.99885e-06 64.6056 0.447718 64.1579 1 64.1579ZM1 71.9474C1.55229 71.9474 2 72.3951 2 72.9474L2 76.8421C2 77.3944 1.55229 77.8421 1 77.8421C0.447719 77.8421 3.55786e-06 77.3944 3.53372e-06 76.8421L3.36348e-06 72.9474C3.33934e-06 72.3951 0.447719 71.9474 1 71.9474ZM1 79.7368C1.55229 79.7368 2 80.1846 2 80.7368L2 84.6316C2 85.1839 1.55229 85.6316 1 85.6316C0.447719 85.6316 3.89835e-06 85.1839 3.87421e-06 84.6316L3.70397e-06 80.7368C3.67982e-06 80.1846 0.447719 79.7368 1 79.7368ZM1 87.5263C1.55229 87.5263 2 87.974 2 88.5263L2 92.4211C2 92.9733 1.55229 93.4211 1 93.4211C0.447719 93.4211 4.23884e-06 92.9733 4.2147e-06 92.4211L4.04445e-06 88.5263C4.02031e-06 87.974 0.447719 87.5263 1 87.5263ZM1 95.3158C1.55229 95.3158 2 95.7635 2 96.3158L2 100.211C2 100.763 1.55229 101.211 1 101.211C0.44772 101.211 4.57933e-06 100.763 4.55519e-06 100.211L4.38494e-06 96.3158C4.3608e-06 95.7635 0.44772 95.3158 1 95.3158ZM1 103.105C1.55229 103.105 2 103.553 2 104.105L2 108C2 108.552 1.55229 109 1 109C0.44772 109 4.91982e-06 108.552 4.89568e-06 108L4.72543e-06 104.105C4.70129e-06 103.553 0.44772 103.105 1 103.105ZM1.00001 110.895C1.55229 110.895 2.00001 111.342 2.00001 111.895L2.00001 115.789C2.00001 116.342 1.55229 116.789 1.00001 116.789C0.447721 116.789 5.26031e-06 116.342 5.23616e-06 115.789L5.06592e-06 111.895C5.04178e-06 111.342 0.44772 110.895 1.00001 110.895ZM1.00001 118.684C1.55229 118.684 2.00001 119.132 2.00001 119.684L2.00001 123.579C2.00001 124.131 1.55229 124.579 1.00001 124.579C0.447721 124.579 5.60079e-06 124.131 5.57665e-06 123.579L5.40641e-06 119.684C5.38227e-06 119.132 0.447721 118.684 1.00001 118.684ZM1.00001 126.474C1.55229 126.474 2.00001 126.921 2.00001 127.474L2.00001 131.368C2.00001 131.921 1.55229 132.368 1.00001 132.368C0.447721 132.368 5.94128e-06 131.921 5.91714e-06 131.368L5.7469e-06 127.474C5.72276e-06 126.921 0.447721 126.474 1.00001 126.474ZM1.00001 134.263C1.55229 134.263 2.00001 134.711 2.00001 135.263L2.00001 139.158C2.00001 139.71 1.55229 140.158 1.00001 140.158C0.447722 140.158 6.28177e-06 139.71 6.25763e-06 139.158L6.08739e-06 135.263C6.06324e-06 134.711 0.447721 134.263 1.00001 134.263ZM1.00001 142.053C1.55229 142.053 2.00001 142.5 2.00001 143.053L2.00001 145C2.00001 145.552 1.55229 146 1.00001 146C0.447722 146 6.53714e-06 145.552 6.513e-06 145L6.42787e-06 143.053C6.40373e-06 142.5 0.447722 142.053 1.00001 142.053Z" fill="white"/>
</g>
<defs>
<clipPath id="clip0_344_934">
<rect width="2" height="8" fill="white"/>
</clipPath>
</defs>
</svg>
