<svg width="186" height="23" viewBox="0 0 186 23" fill="none" xmlns="http://www.w3.org/2000/svg">
<rect x="186" y="7.62939e-06" width="23" height="186" rx="5" transform="rotate(90 186 7.62939e-06)" fill="#CFC5F7"/>
<path d="M78.16 15.14C77.4267 15.14 76.7667 14.9867 76.18 14.68C75.6 14.3667 75.1433 13.9333 74.81 13.38C74.4767 12.8267 74.31 12.2 74.31 11.5C74.31 10.8 74.4767 10.1733 74.81 9.62C75.1433 9.06667 75.6 8.63667 76.18 8.33C76.7667 8.01667 77.4267 7.86 78.16 7.86C78.8 7.86 79.3767 7.97333 79.89 8.2C80.4033 8.42667 80.83 8.75333 81.17 9.18L79.91 10.32C79.4567 9.77333 78.9067 9.5 78.26 9.5C77.88 9.5 77.54 9.58333 77.24 9.75C76.9467 9.91667 76.7167 10.1533 76.55 10.46C76.39 10.76 76.31 11.1067 76.31 11.5C76.31 11.8933 76.39 12.2433 76.55 12.55C76.7167 12.85 76.9467 13.0833 77.24 13.25C77.54 13.4167 77.88 13.5 78.26 13.5C78.9067 13.5 79.4567 13.2267 79.91 12.68L81.17 13.82C80.83 14.2467 80.4033 14.5733 79.89 14.8C79.3767 15.0267 78.8 15.14 78.16 15.14ZM84.8945 12.32H83.9945V15L82.0245 15L82.0245 8L83.9945 8V10.72H84.9445L86.6145 8L88.6945 8L86.5045 11.38L88.7145 15L86.4845 15L84.8945 12.32ZM92.7505 15.14C92.0105 15.14 91.3439 14.9833 90.7505 14.67C90.1639 14.3567 89.7005 13.9233 89.3605 13.37C89.0272 12.8167 88.8605 12.1933 88.8605 11.5C88.8605 10.8067 89.0272 10.1833 89.3605 9.63C89.7005 9.07667 90.1639 8.64333 90.7505 8.33C91.3439 8.01667 92.0105 7.86 92.7505 7.86C93.4905 7.86 94.1539 8.01667 94.7405 8.33C95.3339 8.64333 95.7972 9.07667 96.1305 9.63C96.4705 10.1833 96.6405 10.8067 96.6405 11.5C96.6405 12.1933 96.4705 12.8167 96.1305 13.37C95.7972 13.9233 95.3339 14.3567 94.7405 14.67C94.1539 14.9833 93.4905 15.14 92.7505 15.14ZM92.7505 13.5C93.1039 13.5 93.4239 13.4167 93.7105 13.25C93.9972 13.0833 94.2239 12.85 94.3905 12.55C94.5572 12.2433 94.6405 11.8933 94.6405 11.5C94.6405 11.1067 94.5572 10.76 94.3905 10.46C94.2239 10.1533 93.9972 9.91667 93.7105 9.75C93.4239 9.58333 93.1039 9.5 92.7505 9.5C92.3972 9.5 92.0772 9.58333 91.7905 9.75C91.5039 9.91667 91.2772 10.1533 91.1105 10.46C90.9439 10.76 90.8605 11.1067 90.8605 11.5C90.8605 11.8933 90.9439 12.2433 91.1105 12.55C91.2772 12.85 91.5039 13.0833 91.7905 13.25C92.0772 13.4167 92.3972 13.5 92.7505 13.5ZM100.899 8C101.533 8 102.083 8.10667 102.549 8.32C103.016 8.52667 103.376 8.82667 103.629 9.22C103.883 9.60667 104.009 10.0633 104.009 10.59C104.009 11.1167 103.883 11.5733 103.629 11.96C103.376 12.3467 103.016 12.6467 102.549 12.86C102.083 13.0667 101.533 13.17 100.899 13.17L99.6792 13.17V15L97.6992 15L97.6992 8L100.899 8ZM100.779 11.61C101.186 11.61 101.493 11.5233 101.699 11.35C101.906 11.17 102.009 10.9167 102.009 10.59C102.009 10.2633 101.906 10.01 101.699 9.83C101.493 9.65 101.186 9.56 100.779 9.56L99.6792 9.56V11.61L100.779 11.61ZM108.444 15.14C107.704 15.14 107.037 14.9833 106.444 14.67C105.857 14.3567 105.394 13.9233 105.054 13.37C104.721 12.8167 104.554 12.1933 104.554 11.5C104.554 10.8067 104.721 10.1833 105.054 9.63C105.394 9.07667 105.857 8.64333 106.444 8.33C107.037 8.01667 107.704 7.86 108.444 7.86C109.184 7.86 109.847 8.01667 110.434 8.33C111.027 8.64333 111.491 9.07667 111.824 9.63C112.164 10.1833 112.334 10.8067 112.334 11.5C112.334 12.1933 112.164 12.8167 111.824 13.37C111.491 13.9233 111.027 14.3567 110.434 14.67C109.847 14.9833 109.184 15.14 108.444 15.14ZM108.444 13.5C108.797 13.5 109.117 13.4167 109.404 13.25C109.691 13.0833 109.917 12.85 110.084 12.55C110.251 12.2433 110.334 11.8933 110.334 11.5C110.334 11.1067 110.251 10.76 110.084 10.46C109.917 10.1533 109.691 9.91667 109.404 9.75C109.117 9.58333 108.797 9.5 108.444 9.5C108.091 9.5 107.771 9.58333 107.484 9.75C107.197 9.91667 106.971 10.1533 106.804 10.46C106.637 10.76 106.554 11.1067 106.554 11.5C106.554 11.8933 106.637 12.2433 106.804 12.55C106.971 12.85 107.197 13.0833 107.484 13.25C107.771 13.4167 108.091 13.5 108.444 13.5Z" fill="white"/>
<path d="M134.16 15.14C133.427 15.14 132.767 14.9867 132.18 14.68C131.6 14.3667 131.143 13.9333 130.81 13.38C130.477 12.8267 130.31 12.2 130.31 11.5C130.31 10.8 130.477 10.1733 130.81 9.62C131.143 9.06667 131.6 8.63667 132.18 8.33C132.767 8.01667 133.427 7.86 134.16 7.86C134.8 7.86 135.377 7.97333 135.89 8.2C136.403 8.42667 136.83 8.75333 137.17 9.18L135.91 10.32C135.457 9.77333 134.907 9.5 134.26 9.5C133.88 9.5 133.54 9.58333 133.24 9.75C132.947 9.91667 132.717 10.1533 132.55 10.46C132.39 10.76 132.31 11.1067 132.31 11.5C132.31 11.8933 132.39 12.2433 132.55 12.55C132.717 12.85 132.947 13.0833 133.24 13.25C133.54 13.4167 133.88 13.5 134.26 13.5C134.907 13.5 135.457 13.2267 135.91 12.68L137.17 13.82C136.83 14.2467 136.403 14.5733 135.89 14.8C135.377 15.0267 134.8 15.14 134.16 15.14ZM140.894 12.32H139.994V15L138.024 15V8L139.994 8V10.72H140.944L142.614 8L144.694 8L142.504 11.38L144.714 15L142.484 15L140.894 12.32ZM148.751 15.14C148.011 15.14 147.344 14.9833 146.751 14.67C146.164 14.3567 145.701 13.9233 145.361 13.37C145.027 12.8167 144.861 12.1933 144.861 11.5C144.861 10.8067 145.027 10.1833 145.361 9.63C145.701 9.07667 146.164 8.64333 146.751 8.33C147.344 8.01667 148.011 7.86 148.751 7.86C149.491 7.86 150.154 8.01667 150.741 8.33C151.334 8.64333 151.797 9.07667 152.131 9.63C152.471 10.1833 152.641 10.8067 152.641 11.5C152.641 12.1933 152.471 12.8167 152.131 13.37C151.797 13.9233 151.334 14.3567 150.741 14.67C150.154 14.9833 149.491 15.14 148.751 15.14ZM148.751 13.5C149.104 13.5 149.424 13.4167 149.711 13.25C149.997 13.0833 150.224 12.85 150.391 12.55C150.557 12.2433 150.641 11.8933 150.641 11.5C150.641 11.1067 150.557 10.76 150.391 10.46C150.224 10.1533 149.997 9.91667 149.711 9.75C149.424 9.58333 149.104 9.5 148.751 9.5C148.397 9.5 148.077 9.58333 147.791 9.75C147.504 9.91667 147.277 10.1533 147.111 10.46C146.944 10.76 146.861 11.1067 146.861 11.5C146.861 11.8933 146.944 12.2433 147.111 12.55C147.277 12.85 147.504 13.0833 147.791 13.25C148.077 13.4167 148.397 13.5 148.751 13.5ZM156.899 8C157.533 8 158.083 8.10667 158.549 8.32C159.016 8.52667 159.376 8.82667 159.629 9.22C159.883 9.60667 160.009 10.0633 160.009 10.59C160.009 11.1167 159.883 11.5733 159.629 11.96C159.376 12.3467 159.016 12.6467 158.549 12.86C158.083 13.0667 157.533 13.17 156.899 13.17L155.679 13.17V15L153.699 15V8L156.899 8ZM156.779 11.61C157.186 11.61 157.493 11.5233 157.699 11.35C157.906 11.17 158.009 10.9167 158.009 10.59C158.009 10.2633 157.906 10.01 157.699 9.83C157.493 9.65 157.186 9.56 156.779 9.56L155.679 9.56V11.61L156.779 11.61ZM164.444 15.14C163.704 15.14 163.037 14.9833 162.444 14.67C161.857 14.3567 161.394 13.9233 161.054 13.37C160.721 12.8167 160.554 12.1933 160.554 11.5C160.554 10.8067 160.721 10.1833 161.054 9.63C161.394 9.07667 161.857 8.64333 162.444 8.33C163.037 8.01667 163.704 7.86 164.444 7.86C165.184 7.86 165.847 8.01667 166.434 8.33C167.027 8.64333 167.491 9.07667 167.824 9.63C168.164 10.1833 168.334 10.8067 168.334 11.5C168.334 12.1933 168.164 12.8167 167.824 13.37C167.491 13.9233 167.027 14.3567 166.434 14.67C165.847 14.9833 165.184 15.14 164.444 15.14ZM164.444 13.5C164.797 13.5 165.117 13.4167 165.404 13.25C165.691 13.0833 165.917 12.85 166.084 12.55C166.251 12.2433 166.334 11.8933 166.334 11.5C166.334 11.1067 166.251 10.76 166.084 10.46C165.917 10.1533 165.691 9.91667 165.404 9.75C165.117 9.58333 164.797 9.5 164.444 9.5C164.091 9.5 163.771 9.58333 163.484 9.75C163.197 9.91667 162.971 10.1533 162.804 10.46C162.637 10.76 162.554 11.1067 162.554 11.5C162.554 11.8933 162.637 12.2433 162.804 12.55C162.971 12.85 163.197 13.0833 163.484 13.25C163.771 13.4167 164.091 13.5 164.444 13.5Z" fill="white"/>
<path d="M22.16 15.14C21.4267 15.14 20.7667 14.9867 20.18 14.68C19.6 14.3667 19.1433 13.9333 18.81 13.38C18.4767 12.8267 18.31 12.2 18.31 11.5C18.31 10.8 18.4767 10.1733 18.81 9.62C19.1433 9.06667 19.6 8.63667 20.18 8.33C20.7667 8.01667 21.4267 7.86 22.16 7.86C22.8 7.86 23.3767 7.97333 23.89 8.2C24.4033 8.42667 24.83 8.75333 25.17 9.18L23.91 10.32C23.4567 9.77333 22.9067 9.5 22.26 9.5C21.88 9.5 21.54 9.58333 21.24 9.75C20.9467 9.91667 20.7167 10.1533 20.55 10.46C20.39 10.76 20.31 11.1067 20.31 11.5C20.31 11.8933 20.39 12.2433 20.55 12.55C20.7167 12.85 20.9467 13.0833 21.24 13.25C21.54 13.4167 21.88 13.5 22.26 13.5C22.9067 13.5 23.4567 13.2267 23.91 12.68L25.17 13.82C24.83 14.2467 24.4033 14.5733 23.89 14.8C23.3767 15.0267 22.8 15.14 22.16 15.14ZM28.8945 12.32H27.9945L27.9945 15L26.0245 15L26.0245 8L27.9945 8L27.9945 10.72H28.9445L30.6145 8L32.6945 8L30.5045 11.38L32.7145 15L30.4845 15L28.8945 12.32ZM36.7505 15.14C36.0105 15.14 35.3439 14.9833 34.7505 14.67C34.1639 14.3567 33.7005 13.9233 33.3605 13.37C33.0272 12.8167 32.8605 12.1933 32.8605 11.5C32.8605 10.8067 33.0272 10.1833 33.3605 9.63C33.7005 9.07667 34.1639 8.64333 34.7505 8.33C35.3439 8.01667 36.0105 7.86 36.7505 7.86C37.4905 7.86 38.1539 8.01667 38.7405 8.33C39.3339 8.64333 39.7972 9.07667 40.1305 9.63C40.4705 10.1833 40.6405 10.8067 40.6405 11.5C40.6405 12.1933 40.4705 12.8167 40.1305 13.37C39.7972 13.9233 39.3339 14.3567 38.7405 14.67C38.1539 14.9833 37.4905 15.14 36.7505 15.14ZM36.7505 13.5C37.1039 13.5 37.4239 13.4167 37.7105 13.25C37.9972 13.0833 38.2239 12.85 38.3905 12.55C38.5572 12.2433 38.6405 11.8933 38.6405 11.5C38.6405 11.1067 38.5572 10.76 38.3905 10.46C38.2239 10.1533 37.9972 9.91667 37.7105 9.75C37.4239 9.58333 37.1039 9.5 36.7505 9.5C36.3972 9.5 36.0772 9.58333 35.7905 9.75C35.5039 9.91667 35.2772 10.1533 35.1105 10.46C34.9439 10.76 34.8605 11.1067 34.8605 11.5C34.8605 11.8933 34.9439 12.2433 35.1105 12.55C35.2772 12.85 35.5039 13.0833 35.7905 13.25C36.0772 13.4167 36.3972 13.5 36.7505 13.5ZM44.8992 8C45.5326 8 46.0826 8.10667 46.5492 8.32C47.0159 8.52667 47.3759 8.82667 47.6292 9.22C47.8826 9.60667 48.0092 10.0633 48.0092 10.59C48.0092 11.1167 47.8826 11.5733 47.6292 11.96C47.3759 12.3467 47.0159 12.6467 46.5492 12.86C46.0826 13.0667 45.5326 13.17 44.8992 13.17L43.6792 13.17V15L41.6992 15L41.6992 8L44.8992 8ZM44.7792 11.61C45.1859 11.61 45.4926 11.5233 45.6992 11.35C45.9059 11.17 46.0092 10.9167 46.0092 10.59C46.0092 10.2633 45.9059 10.01 45.6992 9.83C45.4926 9.65 45.1859 9.56 44.7792 9.56L43.6792 9.56L43.6792 11.61L44.7792 11.61ZM52.4439 15.14C51.7039 15.14 51.0372 14.9833 50.4439 14.67C49.8572 14.3567 49.3939 13.9233 49.0539 13.37C48.7206 12.8167 48.5539 12.1933 48.5539 11.5C48.5539 10.8067 48.7206 10.1833 49.0539 9.63C49.3939 9.07667 49.8572 8.64333 50.4439 8.33C51.0372 8.01667 51.7039 7.86 52.4439 7.86C53.1839 7.86 53.8472 8.01667 54.4339 8.33C55.0272 8.64333 55.4906 9.07667 55.8239 9.63C56.1639 10.1833 56.3339 10.8067 56.3339 11.5C56.3339 12.1933 56.1639 12.8167 55.8239 13.37C55.4906 13.9233 55.0272 14.3567 54.4339 14.67C53.8472 14.9833 53.1839 15.14 52.4439 15.14ZM52.4439 13.5C52.7972 13.5 53.1172 13.4167 53.4039 13.25C53.6906 13.0833 53.9172 12.85 54.0839 12.55C54.2506 12.2433 54.3339 11.8933 54.3339 11.5C54.3339 11.1067 54.2506 10.76 54.0839 10.46C53.9172 10.1533 53.6906 9.91667 53.4039 9.75C53.1172 9.58333 52.7972 9.5 52.4439 9.5C52.0906 9.5 51.7706 9.58333 51.4839 9.75C51.1972 9.91667 50.9706 10.1533 50.8039 10.46C50.6372 10.76 50.5539 11.1067 50.5539 11.5C50.5539 11.8933 50.6372 12.2433 50.8039 12.55C50.9706 12.85 51.1972 13.0833 51.4839 13.25C51.7706 13.4167 52.0906 13.5 52.4439 13.5Z" fill="white"/>
<line y1="-1" x2="8.49916" y2="-1" transform="matrix(-0.666897 -0.74515 0.720361 -0.693599 68.7549 9.33313)" stroke="white" stroke-width="2"/>
<line y1="-1" x2="8.49916" y2="-1" transform="matrix(-0.666897 -0.74515 0.720361 -0.693599 68.7549 9.33313)" stroke="white" stroke-width="2"/>
<line y1="-1" x2="8.49916" y2="-1" transform="matrix(-0.666897 -0.74515 0.720361 -0.693599 68.7549 9.33313)" stroke="#FDEDBA" stroke-width="2"/>
<line y1="-1" x2="8.49916" y2="-1" transform="matrix(-0.666897 -0.74515 0.720361 -0.693599 68.8816 18.7135)" stroke="white" stroke-width="2"/>
<line y1="-1" x2="8.49916" y2="-1" transform="matrix(-0.666897 -0.74515 0.720361 -0.693599 68.8816 18.7135)" stroke="white" stroke-width="2"/>
<line y1="-1" x2="8.49916" y2="-1" transform="matrix(-0.666897 -0.74515 0.720361 -0.693599 68.8816 18.7135)" stroke="#FDEDBA" stroke-width="2"/>
<line y1="-1" x2="8.49916" y2="-1" transform="matrix(-0.666897 -0.74515 0.720361 -0.693599 69 14.33)" stroke="white" stroke-width="2"/>
<line y1="-1" x2="8.49916" y2="-1" transform="matrix(-0.666897 -0.74515 0.720361 -0.693599 69 14.33)" stroke="white" stroke-width="2"/>
<line y1="-1" x2="8.49916" y2="-1" transform="matrix(-0.666897 -0.74515 0.720361 -0.693599 69 14.33)" stroke="#FDEDBA" stroke-width="2"/>
<line y1="-1" x2="8.49916" y2="-1" transform="matrix(-0.666897 -0.74515 0.720361 -0.693599 123.755 9.33313)" stroke="white" stroke-width="2"/>
<line y1="-1" x2="8.49916" y2="-1" transform="matrix(-0.666897 -0.74515 0.720361 -0.693599 123.755 9.33313)" stroke="white" stroke-width="2"/>
<line y1="-1" x2="8.49916" y2="-1" transform="matrix(-0.666897 -0.74515 0.720361 -0.693599 123.755 9.33313)" stroke="#FDEDBA" stroke-width="2"/>
<line y1="-1" x2="8.49916" y2="-1" transform="matrix(-0.666897 -0.74515 0.720361 -0.693599 123.882 18.7135)" stroke="white" stroke-width="2"/>
<line y1="-1" x2="8.49916" y2="-1" transform="matrix(-0.666897 -0.74515 0.720361 -0.693599 123.882 18.7135)" stroke="white" stroke-width="2"/>
<line y1="-1" x2="8.49916" y2="-1" transform="matrix(-0.666897 -0.74515 0.720361 -0.693599 123.882 18.7135)" stroke="#FDEDBA" stroke-width="2"/>
<line y1="-1" x2="8.49916" y2="-1" transform="matrix(-0.666897 -0.74515 0.720361 -0.693599 124 14.33)" stroke="white" stroke-width="2"/>
<line y1="-1" x2="8.49916" y2="-1" transform="matrix(-0.666897 -0.74515 0.720361 -0.693599 124 14.33)" stroke="white" stroke-width="2"/>
<line y1="-1" x2="8.49916" y2="-1" transform="matrix(-0.666897 -0.74515 0.720361 -0.693599 124 14.33)" stroke="#FDEDBA" stroke-width="2"/>
</svg>
