<svg width="151" height="19" viewBox="0 0 151 19" fill="none" xmlns="http://www.w3.org/2000/svg">
<path d="M94 1L74 18" stroke="white" stroke-linecap="round"/>
<path d="M94 1L74 18" stroke="#68A2FF" stroke-linecap="round"/>
<path d="M112 1L92 18" stroke="white" stroke-linecap="round"/>
<path d="M112 1L92 18" stroke="#68A2FF" stroke-linecap="round"/>
<path d="M131 1L111 18" stroke="white" stroke-linecap="round"/>
<path d="M131 1L111 18" stroke="#68A2FF" stroke-linecap="round"/>
<path d="M150 1L130 18" stroke="white" stroke-linecap="round"/>
<path d="M150 1L130 18" stroke="#68A2FF" stroke-linecap="round"/>
<path d="M20 1L1 18" stroke="white" stroke-linecap="round"/>
<path d="M20 1L1 18" stroke="#68A2FF" stroke-linecap="round"/>
<path d="M38 1L19 18" stroke="white" stroke-linecap="round"/>
<path d="M38 1L19 18" stroke="#68A2FF" stroke-linecap="round"/>
<path d="M57 1L38 18" stroke="white" stroke-linecap="round"/>
<path d="M57 1L38 18" stroke="#68A2FF" stroke-linecap="round"/>
<path d="M76 1L57 18" stroke="white" stroke-linecap="round"/>
<path d="M76 1L57 18" stroke="#68A2FF" stroke-linecap="round"/>
</svg>
