<svg width="49" height="49" viewBox="0 0 49 49" fill="none" xmlns="http://www.w3.org/2000/svg">
<g filter="url(#filter0_d_179_2494)">
<path d="M39 5.97917C35.1428 2.13542 30 0 24.5714 0C13.2857 0 4.14285 9.11111 4.14285 20.3576C4.14285 23.9167 5.14286 27.4757 6.85714 30.4653L4 41L14.8571 38.1528C17.8571 39.7188 21.1429 40.5729 24.5714 40.5729C35.8571 40.5729 45 31.4618 45 20.2153C44.8571 14.9479 42.8571 9.82292 39 5.97917ZM34.4286 27.6181C34 28.7569 32 29.8958 31 30.0382C30.1429 30.1806 29 30.1806 27.8571 29.8958C27.1429 29.6111 26.1429 29.3264 25 28.7569C19.8571 26.6215 16.5714 21.4965 16.2857 21.0694C16 20.7847 14.1429 18.3646 14.1429 15.8021C14.1429 13.2396 15.4286 12.1007 15.8571 11.5312C16.2857 10.9618 16.8571 10.9618 17.2857 10.9618C17.5714 10.9618 18 10.9618 18.2857 10.9618C18.5714 10.9618 19 10.8194 19.4286 11.816C19.8571 12.8125 20.8571 15.375 21 15.5174C21.1429 15.8021 21.1429 16.0868 21 16.3715C20.8571 16.6563 20.7143 16.941 20.4286 17.2257C20.1429 17.5104 19.8571 17.9375 19.7143 18.0799C19.4286 18.3646 19.1429 18.6493 19.4286 19.0764C19.7143 19.6458 20.7143 21.2118 22.2857 22.6354C24.2857 24.3437 25.8571 24.9132 26.4286 25.1979C27 25.4826 27.2857 25.3403 27.5714 25.0556C27.8571 24.7708 28.8571 23.6319 29.1429 23.0625C29.4286 22.4931 29.8571 22.6354 30.2857 22.7778C30.7143 22.9201 33.2857 24.2014 33.7143 24.4861C34.2857 24.7708 34.5714 24.9132 34.7143 25.0556C34.8571 25.4826 34.8571 26.4792 34.4286 27.6181Z" fill="#B4D1FF"/>
</g>
<defs>
<filter id="filter0_d_179_2494" x="0" y="0" width="49" height="49" filterUnits="userSpaceOnUse" color-interpolation-filters="sRGB">
<feFlood flood-opacity="0" result="BackgroundImageFix"/>
<feColorMatrix in="SourceAlpha" type="matrix" values="0 0 0 0 0 0 0 0 0 0 0 0 0 0 0 0 0 0 127 0" result="hardAlpha"/>
<feOffset dy="4"/>
<feGaussianBlur stdDeviation="2"/>
<feComposite in2="hardAlpha" operator="out"/>
<feColorMatrix type="matrix" values="0 0 0 0 0 0 0 0 0 0 0 0 0 0 0 0 0 0 0.25 0"/>
<feBlend mode="normal" in2="BackgroundImageFix" result="effect1_dropShadow_179_2494"/>
<feBlend mode="normal" in="SourceGraphic" in2="effect1_dropShadow_179_2494" result="shape"/>
</filter>
</defs>
</svg>
