<svg width="39" height="34" viewBox="0 0 39 34" fill="none" xmlns="http://www.w3.org/2000/svg">
<path d="M0.683867 16.3197L9.65016 19.6611L13.1455 30.9002C13.2974 31.6596 14.2093 31.8115 14.8171 31.3558L19.8322 27.2551C20.2881 26.7994 21.0479 26.7994 21.6558 27.2551L30.6221 33.7859C31.2299 34.2416 32.1418 33.9378 32.2937 33.1784L38.9804 1.28361C39.1324 0.524214 38.3726 -0.235179 37.6127 0.0685807L0.683867 14.3453C-0.227956 14.6491 -0.227956 16.016 0.683867 16.3197ZM12.6896 17.9904L30.3181 7.20693C30.622 7.05505 30.926 7.5107 30.6221 7.66258L16.1849 21.1799C15.729 21.6355 15.273 22.243 15.273 23.0024L14.8171 26.6476C14.8171 27.1032 14.0573 27.2551 13.9053 26.6476L12.0816 19.9648C11.6257 19.2055 11.9297 18.2942 12.6896 17.9904Z" fill="white"/>
</svg>
