<svg width="51" height="51" viewBox="0 0 51 51" fill="none" xmlns="http://www.w3.org/2000/svg">
<path d="M40 10.9792C36.1428 7.13542 31 5 25.5714 5C14.2857 5 5.14285 14.1111 5.14285 25.3576C5.14285 28.9167 6.14286 32.4757 7.85714 35.4653L5 46L15.8571 43.1528C18.8571 44.7188 22.1429 45.5729 25.5714 45.5729C36.8571 45.5729 46 36.4618 46 25.2153C45.8571 19.9479 43.8571 14.8229 40 10.9792ZM35.4286 32.6181C35 33.7569 33 34.8958 32 35.0382C31.1429 35.1806 30 35.1806 28.8571 34.8958C28.1429 34.6111 27.1429 34.3264 26 33.7569C20.8571 31.6215 17.5714 26.4965 17.2857 26.0694C17 25.7847 15.1429 23.3646 15.1429 20.8021C15.1429 18.2396 16.4286 17.1007 16.8571 16.5312C17.2857 15.9618 17.8571 15.9618 18.2857 15.9618C18.5714 15.9618 19 15.9618 19.2857 15.9618C19.5714 15.9618 20 15.8194 20.4286 16.816C20.8571 17.8125 21.8571 20.375 22 20.5174C22.1429 20.8021 22.1429 21.0868 22 21.3715C21.8571 21.6563 21.7143 21.941 21.4286 22.2257C21.1429 22.5104 20.8571 22.9375 20.7143 23.0799C20.4286 23.3646 20.1429 23.6493 20.4286 24.0764C20.7143 24.6458 21.7143 26.2118 23.2857 27.6354C25.2857 29.3437 26.8571 29.9132 27.4286 30.1979C28 30.4826 28.2857 30.3403 28.5714 30.0556C28.8571 29.7708 29.8571 28.6319 30.1429 28.0625C30.4286 27.4931 30.8571 27.6354 31.2857 27.7778C31.7143 27.9201 34.2857 29.2014 34.7143 29.4861C35.2857 29.7708 35.5714 29.9132 35.7143 30.0556C35.8571 30.4826 35.8571 31.4792 35.4286 32.6181Z" fill="white"/>
</svg>
