<svg width="47" height="42" viewBox="0 0 47 42" fill="none" xmlns="http://www.w3.org/2000/svg">
<g filter="url(#filter0_d_179_2520)">
<path d="M4.68387 16.3197L13.6502 19.6611L17.1455 30.9002C17.2974 31.6596 18.2093 31.8115 18.8171 31.3558L23.8322 27.2551C24.2881 26.7995 25.0479 26.7995 25.6558 27.2551L34.6221 33.7859C35.2299 34.2416 36.1418 33.9378 36.2937 33.1784L42.9804 1.28361C43.1324 0.524214 42.3726 -0.235179 41.6127 0.0685807L4.68387 14.3453C3.77204 14.6491 3.77204 16.016 4.68387 16.3197ZM16.6896 17.9904L34.3181 7.20693C34.622 7.05505 34.926 7.5107 34.6221 7.66258L20.1849 21.1799C19.729 21.6355 19.273 22.243 19.273 23.0024L18.8171 26.6476C18.8171 27.1032 18.0573 27.2551 17.9053 26.6476L16.0817 19.9648C15.6257 19.2054 15.9297 18.2942 16.6896 17.9904Z" fill="#4F92FF"/>
</g>
<defs>
<filter id="filter0_d_179_2520" x="0" y="0" width="47" height="42" filterUnits="userSpaceOnUse" color-interpolation-filters="sRGB">
<feFlood flood-opacity="0" result="BackgroundImageFix"/>
<feColorMatrix in="SourceAlpha" type="matrix" values="0 0 0 0 0 0 0 0 0 0 0 0 0 0 0 0 0 0 127 0" result="hardAlpha"/>
<feOffset dy="4"/>
<feGaussianBlur stdDeviation="2"/>
<feComposite in2="hardAlpha" operator="out"/>
<feColorMatrix type="matrix" values="0 0 0 0 0 0 0 0 0 0 0 0 0 0 0 0 0 0 0.25 0"/>
<feBlend mode="normal" in2="BackgroundImageFix" result="effect1_dropShadow_179_2520"/>
<feBlend mode="normal" in="SourceGraphic" in2="effect1_dropShadow_179_2520" result="shape"/>
</filter>
</defs>
</svg>
