<svg width="41" height="41" viewBox="0 0 41 41" fill="none" xmlns="http://www.w3.org/2000/svg">
<g filter="url(#filter0_d_179_2491)">
<path d="M12.25 0H5.83333C4.825 0 4 0.825 4 1.83333C4 19.0483 17.9517 33 35.1667 33C36.175 33 37 32.175 37 31.1667V24.7683C37 23.76 36.175 22.935 35.1667 22.935C32.8933 22.935 30.675 22.5683 28.6217 21.89C28.4383 21.8167 28.2367 21.7983 28.0533 21.7983C27.5767 21.7983 27.1183 21.9817 26.7517 22.33L22.7183 26.3633C17.53 23.705 13.2767 19.47 10.6367 14.2817L14.67 10.2483C15.1833 9.735 15.33 9.02 15.1283 8.37833C14.45 6.325 14.0833 4.125 14.0833 1.83333C14.0833 0.825 13.2583 0 12.25 0Z" fill="#B4D1FF"/>
</g>
<defs>
<filter id="filter0_d_179_2491" x="0" y="0" width="41" height="41" filterUnits="userSpaceOnUse" color-interpolation-filters="sRGB">
<feFlood flood-opacity="0" result="BackgroundImageFix"/>
<feColorMatrix in="SourceAlpha" type="matrix" values="0 0 0 0 0 0 0 0 0 0 0 0 0 0 0 0 0 0 127 0" result="hardAlpha"/>
<feOffset dy="4"/>
<feGaussianBlur stdDeviation="2"/>
<feComposite in2="hardAlpha" operator="out"/>
<feColorMatrix type="matrix" values="0 0 0 0 0 0 0 0 0 0 0 0 0 0 0 0 0 0 0.25 0"/>
<feBlend mode="normal" in2="BackgroundImageFix" result="effect1_dropShadow_179_2491"/>
<feBlend mode="normal" in="SourceGraphic" in2="effect1_dropShadow_179_2491" result="shape"/>
</filter>
</defs>
</svg>
