<svg width="41" height="41" viewBox="0 0 41 41" fill="none" xmlns="http://www.w3.org/2000/svg">
<path d="M35 5.97917C31.1428 2.13542 26 0 20.5714 0C9.28571 0 0.142855 9.11111 0.142855 20.3576C0.142855 23.9167 1.14286 27.4757 2.85714 30.4653L0 41L10.8571 38.1528C13.8571 39.7188 17.1429 40.5729 20.5714 40.5729C31.8571 40.5729 41 31.4618 41 20.2153C40.8571 14.9479 38.8571 9.82292 35 5.97917ZM30.4286 27.6181C30 28.7569 28 29.8958 27 30.0382C26.1429 30.1806 25 30.1806 23.8571 29.8958C23.1429 29.6111 22.1429 29.3264 21 28.7569C15.8571 26.6215 12.5714 21.4965 12.2857 21.0694C12 20.7847 10.1429 18.3646 10.1429 15.8021C10.1429 13.2396 11.4286 12.1007 11.8571 11.5312C12.2857 10.9618 12.8571 10.9618 13.2857 10.9618C13.5714 10.9618 14 10.9618 14.2857 10.9618C14.5714 10.9618 15 10.8194 15.4286 11.816C15.8571 12.8125 16.8571 15.375 17 15.5174C17.1429 15.8021 17.1429 16.0868 17 16.3715C16.8571 16.6562 16.7143 16.941 16.4286 17.2257C16.1429 17.5104 15.8571 17.9375 15.7143 18.0799C15.4286 18.3646 15.1429 18.6493 15.4286 19.0764C15.7143 19.6458 16.7143 21.2118 18.2857 22.6354C20.2857 24.3437 21.8571 24.9132 22.4286 25.1979C23 25.4826 23.2857 25.3403 23.5714 25.0556C23.8571 24.7708 24.8571 23.6319 25.1429 23.0625C25.4286 22.4931 25.8571 22.6354 26.2857 22.7778C26.7143 22.9201 29.2857 24.2014 29.7143 24.4861C30.2857 24.7708 30.5714 24.9132 30.7143 25.0556C30.8571 25.4826 30.8571 26.4792 30.4286 27.6181Z" fill="white"/>
</svg>
