<svg width="33" height="33" viewBox="0 0 33 33" fill="none" xmlns="http://www.w3.org/2000/svg">
<path d="M8.25 0H1.83333C0.825 0 0 0.825 0 1.83333C0 19.0483 13.9517 33 31.1667 33C32.175 33 33 32.175 33 31.1667V24.7683C33 23.76 32.175 22.935 31.1667 22.935C28.8933 22.935 26.675 22.5683 24.6217 21.89C24.4383 21.8167 24.2367 21.7983 24.0533 21.7983C23.5767 21.7983 23.1183 21.9817 22.7517 22.33L18.7183 26.3633C13.53 23.705 9.27667 19.47 6.63667 14.2817L10.67 10.2483C11.1833 9.735 11.33 9.02 11.1283 8.37833C10.45 6.325 10.0833 4.125 10.0833 1.83333C10.0833 0.825 9.25833 0 8.25 0Z" fill="white"/>
</svg>
