<svg width="90" height="90" viewBox="0 0 90 90" fill="none" xmlns="http://www.w3.org/2000/svg">
<g filter="url(#filter0_d_179_2522)">
<rect x="4" width="82" height="82" rx="17" fill="#4F92FF"/>
<path d="M34 37C34 35.9 34.855 35 35.9 35H51.1C52.145 35 53 35.9 53 37C53 38.1 52.145 39 51.1 39H35.9C34.855 39 34 38.1 34 37Z" fill="white"/>
<path d="M35.8333 44C34.825 44 34 44.675 34 45.5C34 46.325 34.825 47 35.8333 47H43.1667C44.175 47 45 46.325 45 45.5C45 44.675 44.175 44 43.1667 44H35.8333Z" fill="white"/>
<path fill-rule="evenodd" clip-rule="evenodd" d="M43.4996 15C29.4202 15 18 26.3476 18 40.3726C18 54.3794 29.3108 66 43.4267 66H67.1778C67.7789 66 68.3252 65.7085 68.6712 65.2167C69.0173 64.7249 69.0902 64.1058 68.8898 63.5593L65.247 53.6324C67.633 49.771 68.9992 45.2358 68.9992 40.3726C68.9992 26.3476 57.579 15 43.4996 15ZM21.6428 40.3726C21.6428 28.3876 31.4237 18.6429 43.4996 18.6429C55.5755 18.6429 65.3564 28.3876 65.3564 40.3726C65.3564 44.8169 64.0086 48.9515 61.7136 52.394C61.3857 52.8858 61.3129 53.4869 61.5133 54.0333L64.5731 62.3571H43.4267C31.369 62.3571 21.6428 52.4122 21.6428 40.3726Z" fill="white"/>
<path d="M78.5141 70.944L78.5179 70.9563L78.5225 70.9684C78.5809 71.1185 78.6192 71.2734 78.6375 71.4295L78.9851 71.3888C79.0287 71.7618 78.9766 72.1422 78.8287 72.4965L78.5057 72.3618C78.4457 72.5057 78.3667 72.6451 78.2683 72.777C78.1654 72.9147 78.0477 73.0383 77.9179 73.1461L78.1415 73.4154C77.8386 73.6668 77.4786 73.8448 77.087 73.9342L77.0091 73.593C76.8452 73.6304 76.6743 73.65 76.4989 73.65H75.4802V74H73.4427V73.65H71.4052V74H69.3678V73.65H67.3303V74H65.2928V73.65H63.2553V74H61.2179V73.65H59.1804V74H57.1429V73.65H55.1055V74H53.068V73.65H51.0305V74H48.993V73.65H46.9556V74H44.9181V73.65H43.8993C43.5579 73.65 43.2176 73.6453 42.8786 73.6359L42.8689 73.9858C42.1796 73.9667 41.4955 73.9287 40.8171 73.8721L40.8462 73.5233C40.1661 73.4666 39.4918 73.3911 38.8239 73.2974L38.7753 73.644C38.0931 73.5483 37.4175 73.4338 36.7491 73.301L36.8173 72.9577C36.148 72.8249 35.486 72.6735 34.8319 72.5044L34.7443 72.8432C34.0777 72.6708 33.4193 72.4801 32.7695 72.2717L32.8764 71.9384C32.2277 71.7303 31.5877 71.5044 30.9572 71.2613L30.8313 71.5878C30.1897 71.3405 29.5578 71.0755 28.936 70.7936L29.0806 70.4748C28.4607 70.1937 27.851 69.8955 27.2524 69.581L27.0896 69.8908C26.481 69.5711 25.8836 69.2346 25.298 68.8821L25.4786 68.5822C24.8958 68.2313 24.3249 67.8644 23.7665 67.482L23.5688 67.7708C23.0021 67.3828 22.4482 66.9791 21.9078 66.5604L22.1222 66.2837C21.5849 65.8674 21.061 65.4362 20.5514 64.9907L20.321 65.2542C19.8041 64.8024 19.3015 64.336 18.814 63.8558L19.0597 63.6065C18.5757 63.1297 18.1068 62.6393 17.6538 62.1359L17.3936 62.37C16.9347 61.8601 16.4917 61.337 16.0655 60.8014L16.3394 60.5835C15.9168 60.0524 15.5108 59.509 15.1222 58.954L14.8355 59.1547C14.4422 58.5931 14.0666 58.0197 13.7092 57.4352L14.0078 57.2527C13.6541 56.6743 13.3185 56.085 13.0018 55.4855L12.6923 55.649C12.3723 55.0434 12.0714 54.4275 11.7901 53.8021L12.1093 53.6585C11.8316 53.0411 11.5733 52.4143 11.3352 51.7788L11.0075 51.9016C10.7675 51.2612 10.5478 50.612 10.3489 49.9549L10.6839 49.8535C10.4882 49.2066 10.3129 48.5518 10.1589 47.8899L9.81802 47.9692C9.66318 47.3039 9.52952 46.6314 9.41772 45.9525L9.76307 45.8956C9.65348 45.2301 9.56514 44.5583 9.49872 43.8809L9.15039 43.9151C9.0839 43.237 9.03913 42.5533 9.01673 41.8649L9.36655 41.8535C9.35554 41.5152 9.35 41.1757 9.35 40.8351C9.35 40.4953 9.35556 40.1567 9.36659 39.8195L9.01677 39.808C9.03924 39.1211 9.08417 38.4395 9.1509 37.7638L9.49921 37.7982C9.56593 37.1226 9.65471 36.4529 9.76484 35.79L9.41958 35.7326C9.53208 35.0554 9.66664 34.3851 9.82252 33.7223L10.1632 33.8024C10.3184 33.1426 10.495 32.4903 10.6922 31.8463L10.3576 31.7438C10.5581 31.089 10.7798 30.4425 11.0218 29.8053L11.349 29.9295C11.5893 29.2969 11.8499 28.6733 12.1301 28.0595L11.8117 27.9142C12.0957 27.292 12.3996 26.6797 12.7226 26.078L13.031 26.2436C13.3508 25.648 13.6895 25.0629 14.0465 24.489L13.7493 24.3042C14.1101 23.7241 14.4894 23.1554 14.8863 22.5988L15.1712 22.8019C15.5634 22.252 15.973 21.7138 16.3992 21.1882L16.1274 20.9677C16.5573 20.4377 17.0039 19.9204 17.4666 19.4164L17.7244 19.6531C18.181 19.1557 18.6534 18.6715 19.1409 18.201L18.8979 17.9491C19.3887 17.4754 19.8946 17.0156 20.415 16.5703L20.6425 16.8362C21.1552 16.3975 21.6819 15.973 22.2221 15.5634L22.0107 15.2845C22.5537 14.8727 23.1102 14.4759 23.6793 14.0947L23.8741 14.3855C24.4346 14.01 25.0076 13.6498 25.5923 13.3056L25.4147 13.0039C26.0019 12.6582 26.6009 12.3284 27.2108 12.0151L27.3707 12.3265C27.9705 12.0184 28.581 11.7265 29.2017 11.4514L29.0599 11.1314C29.6821 10.8556 30.3144 10.5965 30.956 10.3547L31.0795 10.6822C31.7101 10.4446 32.3499 10.2238 32.9983 10.0206L32.8936 9.68659C33.5429 9.48303 34.2007 9.29683 34.8663 9.12858L34.952 9.46791C35.6053 9.30277 36.2663 9.15508 36.9343 9.02541L36.8676 8.68182C37.5347 8.55232 38.2088 8.44063 38.8892 8.3473L38.9368 8.69405C39.6033 8.60262 40.276 8.52897 40.9544 8.47364L40.9259 8.1248C41.6026 8.06959 42.2849 8.03244 42.9721 8.01387L42.9815 8.36374C43.3196 8.3546 43.659 8.35 43.9994 8.35C44.3399 8.35 44.6793 8.3546 45.0174 8.36374L45.0268 8.01387C45.714 8.03244 46.3963 8.06959 47.073 8.1248L47.0445 8.47364C47.7228 8.52897 48.3956 8.60262 49.0621 8.69405L49.1096 8.34729C49.7901 8.44063 50.4642 8.55232 51.1313 8.68182L51.0646 9.02541C51.7326 9.15508 52.3936 9.30277 53.0469 9.46791L53.1326 9.12858C53.7982 9.29683 54.456 9.48303 55.1053 9.68659L55.0006 10.0206C55.6489 10.2238 56.2888 10.4446 56.9194 10.6822L57.0428 10.3547C57.6845 10.5965 58.3168 10.8556 58.939 11.1314L58.7972 11.4514C59.4179 11.7265 60.0284 12.0184 60.6282 12.3265L60.7881 12.0151C61.398 12.3284 61.997 12.6582 62.5842 13.0039L62.4066 13.3055C62.9913 13.6498 63.5643 14.01 64.1248 14.3855L64.3196 14.0947C64.8887 14.4759 65.4452 14.8727 65.9882 15.2845L65.7768 15.5634C66.3169 15.973 66.8437 16.3975 67.3564 16.8362L67.5839 16.5703C68.1043 17.0156 68.6102 17.4754 69.101 17.9491L68.858 18.201C69.3455 18.6715 69.8179 19.1557 70.2745 19.6531L70.5323 19.4164C70.995 19.9204 71.4416 20.4377 71.8715 20.9677L71.5997 21.1882C72.0259 21.7138 72.4355 22.252 72.8276 22.8019L73.1126 22.5988C73.5095 23.1554 73.8888 23.7241 74.2496 24.3042L73.9524 24.489C74.3094 25.0629 74.6481 25.648 74.9679 26.2436L75.2763 26.078C75.5993 26.6797 75.9032 27.292 76.1872 27.9142L75.8688 28.0595C76.149 28.6733 76.4096 29.2969 76.6499 29.9295L76.9771 29.8053C77.2191 30.4425 77.4408 31.089 77.6413 31.7438L77.3067 31.8463C77.5039 32.4903 77.6805 33.1426 77.8357 33.8024L78.1764 33.7223C78.3323 34.3851 78.4668 35.0554 78.5793 35.7326L78.234 35.79C78.3442 36.4529 78.433 37.1226 78.4997 37.7982L78.848 37.7638C78.9147 38.4395 78.9596 39.1211 78.9821 39.808L78.6323 39.8195C78.6433 40.1567 78.6489 40.4953 78.6489 40.8351C78.6489 41.1605 78.6442 41.4764 78.635 41.7835L78.9848 41.7941C78.9645 42.4678 78.9221 43.1014 78.8581 43.703L78.51 43.6659C78.4403 44.321 78.3444 44.9362 78.2231 45.5225L78.5658 45.5934C78.4324 46.238 78.2684 46.8496 78.0744 47.4419L77.7418 47.3329C77.5462 47.9297 77.3193 48.5072 77.061 49.0804L77.3801 49.2242C77.1231 49.7944 76.8361 50.3593 76.5196 50.9327L76.2132 50.7635C75.9194 51.2958 75.5991 51.8367 75.2522 52.3984L75.55 52.5823C75.2292 53.1016 74.8868 53.6371 74.5229 54.1975L74.2293 54.0069C74.0597 54.268 73.8854 54.5348 73.7062 54.8082L73.6162 54.9455L73.6643 55.1025L73.9674 56.0925L74.3021 55.9901L74.9083 57.9703L74.5736 58.0727L75.1799 60.0529L75.5145 59.9505L76.1208 61.9307L75.7861 62.0331L76.3923 64.0133L76.727 63.9109L77.3332 65.891L76.9985 65.9935L77.6047 67.9737L77.9394 67.8712L78.5456 69.8514L78.211 69.9539L78.5141 70.944ZM69.3375 54.9073L69.3327 54.8899L69.3262 54.8731C69.2734 54.7372 69.2461 54.5631 69.249 54.3587L68.899 54.3538C68.9049 53.9363 69.0176 53.476 69.186 53.0769L69.5085 53.213C69.5915 53.0164 69.6872 52.8415 69.7858 52.7021C70.0002 52.3988 70.2064 52.1093 70.4046 51.831L70.1195 51.6279C70.1258 51.6191 70.1321 51.6103 70.1384 51.6015C70.5825 50.9781 70.985 50.413 71.3476 49.88L71.637 50.0769C72.0722 49.4372 72.4545 48.8374 72.7836 48.2354L72.4765 48.0675C72.8232 47.4332 73.1073 46.8004 73.3322 46.1134L73.6648 46.2223C73.879 45.5679 74.0404 44.8687 74.1524 44.0819L73.8059 44.0326C73.8969 43.3933 73.955 42.6922 73.9818 41.9042L74.3316 41.916C74.3432 41.5721 74.349 41.2125 74.349 40.8351C74.349 40.4827 74.3421 40.1318 74.3286 39.7824L73.9788 39.796C73.9518 39.1 73.8977 38.4103 73.8176 37.728L74.1652 37.6871C74.0829 36.9868 73.9735 36.2941 73.838 35.6099L73.4947 35.6779C73.3598 34.9965 73.1986 34.3237 73.0122 33.6605L73.3491 33.5658C73.1589 32.8888 72.9427 32.2217 72.7017 31.5654L72.3731 31.686C72.1342 31.0355 71.8705 30.3957 71.5832 29.7677L71.9014 29.622C71.6096 28.9842 71.2936 28.3584 70.9546 27.7457L70.6484 27.9151C70.3135 27.3097 69.9558 26.7172 69.5764 26.1385L69.8691 25.9466C69.4853 25.3612 69.0797 24.7898 68.6531 24.2335L68.3754 24.4465C67.955 23.8981 67.5141 23.3645 67.0536 22.8466L67.3152 22.6141C66.8509 22.0918 66.3671 21.5854 65.8647 21.0957L65.6205 21.3464C65.1261 20.8645 64.6136 20.3992 64.084 19.9512L64.31 19.684C63.7771 19.2332 63.2271 18.8 62.661 18.3852L62.4542 18.6675C61.8977 18.2597 61.3255 17.8699 60.7385 17.4991L60.9255 17.2032C60.3361 16.8308 59.7321 16.4773 59.1144 16.1437L58.948 16.4516C58.3415 16.124 57.7216 15.8157 57.0892 15.5276L57.2343 15.2091C56.6006 14.9203 55.9546 14.6517 55.2972 14.404L55.1738 14.7315C54.5293 14.4887 53.8739 14.2663 53.2082 14.0651L53.3095 13.7301C52.6434 13.5287 51.9673 13.3484 51.282 13.19L51.2031 13.531C50.5332 13.3761 49.8544 13.2423 49.1676 13.1304L49.2239 12.7849C48.5375 12.6731 47.8432 12.5829 47.1418 12.5152L47.1082 12.8636C46.425 12.7976 45.735 12.7531 45.039 12.7309L45.0502 12.381C44.7014 12.3699 44.3511 12.3643 43.9994 12.3643C43.6478 12.3643 43.2975 12.3699 42.9487 12.381L42.9599 12.7309C42.2639 12.7531 41.5739 12.7976 40.8907 12.8636L40.857 12.5152C40.1557 12.5829 39.4614 12.6731 38.775 12.7849L38.8313 13.1304C38.1445 13.2423 37.4657 13.3761 36.7958 13.531L36.7169 13.19C36.0316 13.3484 35.3555 13.5287 34.6894 13.7301L34.7907 14.0651C34.125 14.2663 33.4695 14.4887 32.8251 14.7315L32.7017 14.404C32.0443 14.6517 31.3983 14.9203 30.7646 15.2091L30.9097 15.5276C30.2773 15.8157 29.6574 16.124 29.0508 16.4516L28.8845 16.1437C28.2668 16.4773 27.6628 16.8308 27.0734 17.2032L27.2604 17.4991C26.6734 17.8699 26.1012 18.2597 25.5447 18.6675L25.3379 18.3852C24.7718 18.8 24.2218 19.2332 23.6889 19.684L23.9149 19.9512C23.3853 20.3992 22.8728 20.8645 22.3784 21.3464L22.1341 21.0957C21.6318 21.5854 21.148 22.0918 20.6837 22.6141L20.9452 22.8466C20.4848 23.3645 20.0439 23.8981 19.6235 24.4465L19.3457 24.2335C18.9192 24.7898 18.5136 25.3612 18.1298 25.9466L18.4225 26.1385C18.0431 26.7172 17.6854 27.3097 17.3505 27.9151L17.0443 27.7457C16.7053 28.3584 16.3893 28.9842 16.0975 29.622L16.4157 29.7677C16.1283 30.3957 15.8647 31.0355 15.6257 31.686L15.2972 31.5654C15.0562 32.2217 14.84 32.8888 14.6497 33.5658L14.9867 33.6605C14.8003 34.3237 14.6391 34.9965 14.5042 35.6779L14.1609 35.6099C14.0254 36.2941 13.916 36.9868 13.8337 37.6871L14.1813 37.728C14.1012 38.4103 14.0471 39.1 14.0201 39.796L13.6703 39.7824C13.6568 40.1318 13.6499 40.4827 13.6499 40.8351C13.6499 41.1885 13.6567 41.5406 13.6702 41.8911L14.0199 41.8777C14.0467 42.5758 14.1002 43.2679 14.1796 43.9531L13.832 43.9934C13.9133 44.6958 14.0215 45.391 14.1556 46.078L14.4991 46.011C14.6325 46.6949 14.7918 47.3705 14.9761 48.037L14.6388 48.1303C14.8267 48.8101 15.0403 49.4804 15.2784 50.1403L15.6076 50.0215C15.8436 50.6755 16.1041 51.3192 16.3881 51.9514L16.0688 52.0948C16.3571 52.7368 16.6693 53.367 17.0042 53.9844L17.3118 53.8176C17.6429 54.4279 17.9965 55.0257 18.3716 55.6098L18.0771 55.7989C18.4567 56.39 18.858 56.9672 19.28 57.5296L19.5599 57.3195C19.9762 57.8743 20.4129 58.4144 20.8689 58.939L20.6048 59.1686C21.065 59.698 21.5447 60.2115 22.0428 60.7083L22.29 60.4605C22.7807 60.9499 23.2895 61.4229 23.8155 61.8783L23.5863 62.1429C24.116 62.6016 24.6627 63.0427 25.2256 63.4653L25.4357 63.1854C25.9896 63.6012 26.5592 63.9989 27.1437 64.3774L26.9534 64.6712C27.5409 65.0517 28.1431 65.413 28.7592 65.7543L28.9288 65.4481C29.5341 65.7834 30.1529 66.0991 30.7842 66.3943L30.636 66.7113C31.2694 67.0074 31.9154 67.2831 32.5728 67.5373L32.699 67.2108C33.3437 67.4601 33.9995 67.6886 34.6657 67.8953L34.562 68.2296C35.2292 68.4366 35.9066 68.6221 36.5934 68.7852L36.6743 68.4447C37.3456 68.6041 38.026 68.7418 38.7146 68.857L38.6568 69.2022C39.3453 69.3174 40.0418 69.4103 40.7455 69.4801L40.7801 69.1319C41.4654 69.1999 42.1577 69.2457 42.8562 69.2686L42.8447 69.6184C43.1948 69.6299 43.5464 69.6357 43.8993 69.6357H44.9359V69.2857H47.0091V69.6357H49.0823V69.2857H51.1555V69.6357H53.2287V69.2857H55.3018V69.6357H57.375V69.2857H59.4482V69.6357H61.5214V69.2857H63.5946V69.6357H65.6677V69.2857H67.7409V69.6357H69.8141V69.2857H71.8873V69.6357H72.9239H73.3829L73.2614 69.193L73.0161 68.3002L72.6786 68.3929L72.1881 66.6071L72.5256 66.5144L72.0352 64.7287L71.6977 64.8214L71.2072 63.0357L71.5447 62.943L71.0542 61.1573L70.7167 61.25L70.2262 59.4643L70.5637 59.3716L70.0732 57.5859L69.7357 57.6786L69.2452 55.8929L69.5827 55.8002L69.3375 54.9073Z" stroke="white" stroke-width="0.7" stroke-dasharray="2 2"/>
</g>
<defs>
<filter id="filter0_d_179_2522" x="0" y="0" width="90" height="90" filterUnits="userSpaceOnUse" color-interpolation-filters="sRGB">
<feFlood flood-opacity="0" result="BackgroundImageFix"/>
<feColorMatrix in="SourceAlpha" type="matrix" values="0 0 0 0 0 0 0 0 0 0 0 0 0 0 0 0 0 0 127 0" result="hardAlpha"/>
<feOffset dy="4"/>
<feGaussianBlur stdDeviation="2"/>
<feComposite in2="hardAlpha" operator="out"/>
<feColorMatrix type="matrix" values="0 0 0 0 0.0833333 0 0 0 0 0.0833333 0 0 0 0 0.0833333 0 0 0 0.37 0"/>
<feBlend mode="normal" in2="BackgroundImageFix" result="effect1_dropShadow_179_2522"/>
<feBlend mode="normal" in="SourceGraphic" in2="effect1_dropShadow_179_2522" result="shape"/>
</filter>
</defs>
</svg>
