<svg width="90" height="90" viewBox="0 0 90 90" fill="none" xmlns="http://www.w3.org/2000/svg">
<g filter="url(#filter0_d_179_2475)">
<rect x="4" width="82" height="82" rx="17" fill="white"/>
<path d="M34 37C34 35.9 34.855 35 35.9 35H51.1C52.145 35 53 35.9 53 37C53 38.1 52.145 39 51.1 39H35.9C34.855 39 34 38.1 34 37Z" fill="#4F92FF"/>
<path d="M35.8333 44C34.825 44 34 44.675 34 45.5C34 46.325 34.825 47 35.8333 47H43.1667C44.175 47 45 46.325 45 45.5C45 44.675 44.175 44 43.1667 44H35.8333Z" fill="#4F92FF"/>
<path fill-rule="evenodd" clip-rule="evenodd" d="M43.4996 15C29.4202 15 18 26.3476 18 40.3726C18 54.3794 29.3108 66 43.4267 66H67.1778C67.7789 66 68.3252 65.7085 68.6712 65.2167C69.0173 64.7249 69.0902 64.1058 68.8898 63.5593L65.247 53.6324C67.633 49.771 68.9992 45.2358 68.9992 40.3726C68.9992 26.3476 57.579 15 43.4996 15ZM21.6428 40.3726C21.6428 28.3876 31.4237 18.6429 43.4996 18.6429C55.5755 18.6429 65.3564 28.3876 65.3564 40.3726C65.3564 44.8169 64.0086 48.9515 61.7136 52.394C61.3857 52.8858 61.3129 53.4869 61.5133 54.0333L64.5731 62.3571H43.4267C31.369 62.3571 21.6428 52.4122 21.6428 40.3726Z" fill="#4F92FF"/>
<path d="M78.7531 70.8708L78.7529 70.8709L78.7555 70.8778C78.8216 71.0477 78.865 71.2232 78.8858 71.4004L78.9851 71.3888C79.0287 71.7618 78.9766 72.1422 78.8287 72.4965L78.7365 72.458C78.6685 72.6209 78.5792 72.7783 78.4686 72.9265C78.3539 73.0802 78.2226 73.2181 78.0776 73.3384L78.1415 73.4154C77.8386 73.6668 77.4786 73.8448 77.087 73.9342L77.0648 73.8367C76.8825 73.8783 76.693 73.9 76.4989 73.9H75.4802V74H73.4427V73.9H71.4052V74H69.3678V73.9H67.3303V74H65.2928V73.9H63.2553V74H61.2179V73.9H59.1804V74H57.1429V73.9H55.1055V74H53.068V73.9H51.0305V74H48.993V73.9H46.9556V74H44.9181V73.9H43.8993C43.5556 73.9 43.213 73.8952 42.8717 73.8858L42.8689 73.9858C42.1796 73.9667 41.4955 73.9287 40.8171 73.8721L40.8254 73.7724C40.1406 73.7153 39.4617 73.6393 38.7892 73.545L38.7753 73.644C38.0931 73.5483 37.4175 73.4338 36.7491 73.301L36.7686 73.203C36.0946 73.0691 35.428 72.9167 34.7693 72.7464L34.7443 72.8432C34.0777 72.6708 33.4193 72.4801 32.7695 72.2717L32.8 72.1764C32.1467 71.9669 31.5023 71.7394 30.8672 71.4945L30.8313 71.5878C30.1897 71.3405 29.5578 71.0755 28.936 70.7936L28.9773 70.7025C28.353 70.4194 27.739 70.1191 27.1361 69.8023L27.0896 69.8908C26.481 69.5711 25.8836 69.2346 25.298 68.8821L25.3496 68.7964C24.7627 68.443 24.1876 68.0734 23.6253 67.6883L23.5688 67.7708C23.0021 67.3828 22.4482 66.9791 21.9078 66.5604L21.9691 66.4813C21.4279 66.062 20.9002 65.6277 20.3868 65.1789L20.321 65.2542C19.8041 64.8024 19.3015 64.336 18.814 63.8558L18.8842 63.7846C18.3967 63.3043 17.9244 62.8103 17.4679 62.3031L17.3936 62.37C16.9347 61.8601 16.4917 61.337 16.0655 60.8014L16.1438 60.7392C15.718 60.2041 15.309 59.6566 14.9174 59.0974L14.8355 59.1547C14.4422 58.5931 14.0666 58.0197 13.7092 57.4352L13.7945 57.3831C13.4381 56.8003 13.0999 56.2064 12.7807 55.6023L12.6923 55.649C12.3723 55.0434 12.0714 54.4275 11.7901 53.8021L11.8813 53.7611C11.6014 53.1388 11.3411 52.507 11.1011 51.8665L11.0075 51.9016C10.7675 51.2612 10.5478 50.612 10.3489 49.9549L10.4446 49.9259C10.2473 49.2738 10.0707 48.6138 9.91541 47.9465L9.81802 47.9692C9.66318 47.3039 9.52952 46.6314 9.41772 45.9525L9.5164 45.9362C9.40592 45.2653 9.31687 44.5881 9.24992 43.9053L9.15039 43.9151C9.0839 43.237 9.03913 42.5533 9.01673 41.8649L9.11668 41.8616C9.10559 41.5206 9.1 41.1784 9.1 40.8351C9.1 40.4926 9.1056 40.1513 9.11672 39.8113L9.01677 39.808C9.03924 39.1211 9.08417 38.4395 9.1509 37.7638L9.25042 37.7737C9.31769 37.0925 9.40719 36.4174 9.51822 35.749L9.41958 35.7326C9.53208 35.0554 9.66664 34.3851 9.82252 33.7223L9.91986 33.7452C10.0763 33.08 10.2543 32.4224 10.4532 31.7731L10.3576 31.7438C10.5581 31.089 10.7798 30.4425 11.0218 29.8053L11.1153 29.8408C11.3575 29.203 11.6202 28.5744 11.9026 27.9557L11.8117 27.9142C12.0957 27.292 12.3996 26.6797 12.7226 26.078L12.8107 26.1253C13.133 25.525 13.4744 24.9354 13.8342 24.357L13.7493 24.3042C14.1101 23.7241 14.4894 23.1554 14.8863 22.5988L14.9677 22.6568C15.3628 22.1026 15.7755 21.5603 16.2051 21.0307L16.1274 20.9677C16.5573 20.4377 17.0039 19.9204 17.4666 19.4164L17.5403 19.484C18.0003 18.9829 18.4762 18.4951 18.9673 18.0211L18.8979 17.9491C19.3887 17.4754 19.8946 17.0156 20.415 16.5703L20.48 16.6463C20.9964 16.2043 21.527 15.7767 22.0711 15.3642L22.0107 15.2845C22.5537 14.8727 23.1102 14.4759 23.6793 14.0947L23.7349 14.1778C24.2995 13.7996 24.8766 13.4368 25.4655 13.0901L25.4147 13.0039C26.0019 12.6582 26.6009 12.3284 27.2108 12.0151L27.2565 12.1041C27.8605 11.7939 28.4753 11.4999 29.1004 11.2229L29.0599 11.1314C29.6821 10.8556 30.3144 10.5965 30.956 10.3547L30.9913 10.4483C31.6264 10.209 32.2707 9.9867 32.9235 9.78201L32.8936 9.68659C33.5429 9.48303 34.2007 9.29683 34.8663 9.12858L34.8908 9.22553C35.5486 9.05925 36.2141 8.91055 36.8867 8.77999L36.8676 8.68182C37.5347 8.55232 38.2088 8.44063 38.8892 8.3473L38.9028 8.44637C39.5739 8.35432 40.2512 8.28017 40.934 8.22446L40.9259 8.1248C41.6026 8.06959 42.2849 8.03244 42.9721 8.01387L42.9748 8.11383C43.3151 8.10463 43.6567 8.1 43.9994 8.1C44.3422 8.1 44.6838 8.10463 45.0241 8.11383L45.0268 8.01387C45.714 8.03244 46.3963 8.06959 47.073 8.1248L47.0648 8.22446C47.7477 8.28017 48.425 8.35432 49.0961 8.44637L49.1096 8.34729C49.7901 8.44063 50.4642 8.55232 51.1313 8.68182L51.1122 8.77999C51.7848 8.91055 52.4503 9.05925 53.1081 9.22553L53.1326 9.12858C53.7982 9.29683 54.456 9.48303 55.1053 9.68659L55.0754 9.78201C55.7282 9.9867 56.3725 10.209 57.0076 10.4483L57.0428 10.3547C57.6845 10.5965 58.3168 10.8556 58.939 11.1314L58.8985 11.2228C59.5235 11.4999 60.1384 11.7939 60.7424 12.1041L60.7881 12.0151C61.398 12.3284 61.997 12.6582 62.5842 13.0039L62.5334 13.0901C63.1223 13.4368 63.6994 13.7996 64.264 14.1778L64.3196 14.0947C64.8887 14.4759 65.4452 14.8727 65.9882 15.2845L65.9278 15.3642C66.4719 15.7767 67.0025 16.2043 67.5189 16.6463L67.5839 16.5703C68.1043 17.0156 68.6102 17.4754 69.101 17.9491L69.0316 18.0211C69.5227 18.4951 69.9986 18.9829 70.4586 19.484L70.5323 19.4164C70.995 19.9204 71.4416 20.4377 71.8715 20.9677L71.7938 21.0307C72.2233 21.5603 72.6361 22.1026 73.0312 22.6568L73.1126 22.5988C73.5095 23.1554 73.8888 23.7241 74.2496 24.3042L74.1647 24.357C74.5245 24.9354 74.8659 25.525 75.1882 26.1253L75.2763 26.078C75.5993 26.6797 75.9032 27.292 76.1872 27.9142L76.0963 27.9557C76.3787 28.5744 76.6414 29.203 76.8836 29.8408L76.9771 29.8052C77.2191 30.4425 77.4408 31.089 77.6413 31.7438L77.5457 31.7731C77.7446 32.4224 77.9226 33.08 78.079 33.7452L78.1764 33.7223C78.3323 34.3851 78.4668 35.0554 78.5793 35.7326L78.4807 35.749C78.5917 36.4174 78.6812 37.0925 78.7485 37.7737L78.848 37.7638C78.9147 38.4395 78.9596 39.1211 78.9821 39.808L78.8822 39.8113C78.8933 40.1513 78.8989 40.4926 78.8989 40.8351C78.8989 41.1629 78.8942 41.4813 78.8848 41.7911L78.9848 41.7941C78.9645 42.4678 78.9221 43.1014 78.8581 43.703L78.7586 43.6924C78.688 44.3551 78.591 44.9784 78.4679 45.5731L78.5658 45.5934C78.4324 46.238 78.2684 46.8496 78.0744 47.4419L77.9793 47.4107C77.7808 48.0167 77.5506 48.6025 77.2889 49.1831L77.3801 49.2242C77.1231 49.7944 76.8361 50.3593 76.5196 50.9327L76.4321 50.8843C76.1358 51.4211 75.8133 51.9657 75.4649 52.5297L75.55 52.5823C75.2292 53.1016 74.8868 53.6371 74.5229 54.1975L74.439 54.143C74.2691 54.4046 74.0946 54.6717 73.9153 54.9452L73.8896 54.9844L73.9034 55.0293L74.2065 56.0194L74.3021 55.9901L74.9083 57.9703L74.8127 57.9996L75.4189 59.9797L75.5145 59.9505L76.1208 61.9307L76.0251 61.9599L76.6313 63.9401L76.727 63.9109L77.3332 65.891L77.2376 65.9203L77.8438 67.9005L77.9394 67.8712L78.5456 69.8514L78.45 69.8807L78.7531 70.8708ZM69.0964 54.9735L69.0969 54.9734L69.0932 54.9638C69.0255 54.7897 68.9959 54.5816 68.999 54.3552L68.899 54.3538C68.9049 53.9363 69.0176 53.476 69.186 53.0769L69.2782 53.1158C69.3669 52.9056 69.4709 52.7143 69.5816 52.5577C69.7964 52.254 70.0028 51.9643 70.201 51.686L70.1195 51.6279C70.1258 51.6191 70.1321 51.6103 70.1384 51.6015C70.5825 50.9781 70.985 50.413 71.3476 49.88L71.4303 49.9362C71.8632 49.3 72.2405 48.7076 72.5642 48.1155L72.4765 48.0675C72.8232 47.4332 73.1073 46.8004 73.3322 46.1134L73.4272 46.1445C73.6365 45.5053 73.7947 44.8204 73.9049 44.0467L73.8059 44.0326C73.8969 43.3933 73.955 42.6922 73.9818 41.9042L74.0817 41.9076C74.0933 41.5668 74.099 41.21 74.099 40.8351C74.099 40.486 74.0922 40.1383 74.0788 39.7921L73.9788 39.796C73.9518 39.1 73.8977 38.4103 73.8176 37.728L73.9169 37.7163C73.8354 37.0225 73.727 36.3363 73.5928 35.6585L73.4947 35.6779C73.3598 34.9965 73.1986 34.3237 73.0122 33.6605L73.1085 33.6334C72.92 32.9628 72.7058 32.3018 72.467 31.6516L72.3731 31.686C72.1342 31.0355 71.8705 30.3957 71.5832 29.7677L71.6741 29.7261C71.3849 29.0941 71.0718 28.4739 70.7359 27.8667L70.6484 27.9151C70.3135 27.3097 69.9558 26.7172 69.5764 26.1385L69.66 26.0836C69.2797 25.5034 68.8775 24.9371 68.4547 24.3856L68.3754 24.4465C67.955 23.8981 67.5141 23.3645 67.0536 22.8466L67.1284 22.7802C66.6681 22.2624 66.1883 21.7602 65.6903 21.2748L65.6205 21.3464C65.1261 20.8645 64.6136 20.3992 64.084 19.9512L64.1485 19.8748C63.6201 19.4279 63.0747 18.9982 62.5133 18.5868L62.4542 18.6675C61.8977 18.2597 61.3255 17.8699 60.7385 17.4991L60.7919 17.4145C60.2074 17.0452 59.6083 16.6946 58.9956 16.3636L58.948 16.4516C58.3415 16.124 57.7216 15.8157 57.0892 15.5276L57.1307 15.4366C56.502 15.1501 55.8612 14.8836 55.209 14.6379L55.1738 14.7315C54.5294 14.4887 53.8739 14.2663 53.2082 14.0651L53.2372 13.9694C52.5763 13.7696 51.9055 13.5908 51.2256 13.4335L51.2031 13.531C50.5332 13.3761 49.8544 13.2423 49.1676 13.1304L49.1837 13.0317C48.5026 12.9207 47.8137 12.8313 47.1178 12.764L47.1082 12.8636C46.425 12.7976 45.735 12.7531 45.039 12.7309L45.0422 12.6309C44.696 12.6199 44.3484 12.6143 43.9994 12.6143C43.6504 12.6143 43.3028 12.6199 42.9567 12.6309L42.9599 12.7309C42.2639 12.7531 41.5739 12.7976 40.8907 12.8636L40.8811 12.764C40.1851 12.8313 39.4962 12.9207 38.8152 13.0317L38.8313 13.1304C38.1445 13.2423 37.4657 13.3761 36.7958 13.531L36.7732 13.4335C36.0933 13.5908 35.4225 13.7696 34.7617 13.9694L34.7907 14.0651C34.125 14.2663 33.4695 14.4887 32.8251 14.7315L32.7899 14.6379C32.1377 14.8837 31.4968 15.1502 30.8682 15.4366L30.9097 15.5276C30.2773 15.8157 29.6574 16.124 29.0508 16.4516L29.0033 16.3636C28.3906 16.6946 27.7915 17.0452 27.207 17.4145L27.2604 17.4991C26.6734 17.8699 26.1012 18.2597 25.5447 18.6675L25.4856 18.5868C24.9242 18.9982 24.3788 19.4279 23.8504 19.8748L23.9149 19.9512C23.3853 20.3992 22.8728 20.8645 22.3784 21.3464L22.3086 21.2748C21.8106 21.7602 21.3308 22.2624 20.8705 22.7802L20.9452 22.8466C20.4848 23.3645 20.0439 23.8981 19.6235 24.4465L19.5441 24.3856C19.1213 24.9371 18.7192 25.5034 18.3389 26.0836L18.4225 26.1385C18.0431 26.7172 17.6854 27.3097 17.3505 27.9151L17.263 27.8667C16.9271 28.4739 16.614 29.0941 16.3248 29.7261L16.4157 29.7677C16.1283 30.3957 15.8647 31.0355 15.6257 31.686L15.5319 31.6516C15.2931 32.3018 15.0789 32.9628 14.8904 33.6334L14.9867 33.6605C14.8003 34.3237 14.6391 34.9965 14.5042 35.6779L14.4061 35.6585C14.2719 36.3363 14.1635 37.0225 14.082 37.7163L14.1813 37.728C14.1012 38.4103 14.0471 39.1 14.0201 39.796L13.9201 39.7921C13.9067 40.1383 13.8999 40.486 13.8999 40.8351C13.8999 41.1853 13.9066 41.5342 13.92 41.8816L14.0199 41.8777C14.0467 42.5758 14.1002 43.2679 14.1796 43.9531L14.0803 43.9646C14.1609 44.6605 14.2681 45.3494 14.4009 46.0301L14.4991 46.011C14.6325 46.6948 14.7918 47.3705 14.9761 48.037L14.8797 48.0637C15.066 48.7373 15.2776 49.4015 15.5135 50.0554L15.6076 50.0215C15.8436 50.6755 16.1041 51.3192 16.3881 51.9514L16.2969 51.9924C16.5826 52.6286 16.892 53.2532 17.2239 53.8652L17.3118 53.8176C17.6429 54.4279 17.9965 55.0257 18.3716 55.6098L18.2875 55.6638C18.6638 56.2497 19.0616 56.822 19.4799 57.3795L19.5599 57.3195C19.9762 57.8743 20.4129 58.4144 20.8689 58.939L20.7935 59.0046C21.2498 59.5294 21.7254 60.0387 22.2194 60.5313L22.29 60.4605C22.7807 60.9499 23.2895 61.4229 23.8155 61.8783L23.75 61.9539C24.2752 62.4088 24.8175 62.8463 25.3757 63.2654L25.4357 63.1854C25.9896 63.6012 26.5592 63.9989 27.1437 64.3774L27.0893 64.4614C27.672 64.8387 28.2693 65.1971 28.8803 65.5356L28.9288 65.4481C29.5341 65.7834 30.1529 66.0991 30.7842 66.3943L30.7419 66.4849C31.3702 66.7786 32.0108 67.0519 32.663 67.3041L32.699 67.2108C33.3437 67.4601 33.9995 67.6886 34.6657 67.8953L34.6361 67.9908C35.2979 68.1962 35.9699 68.3802 36.6512 68.542L36.6743 68.4447C37.3456 68.6041 38.026 68.7418 38.7146 68.857L38.6981 68.9556C39.381 69.0699 40.072 69.1621 40.7702 69.2314L40.7801 69.1319C41.4654 69.1999 42.1577 69.2457 42.8562 69.2686L42.8529 69.3686C43.2003 69.38 43.5491 69.3857 43.8993 69.3857H44.9359V69.2857H47.0091V69.3857H49.0823V69.2857H51.1555V69.3857H53.2287V69.2857H55.3018V69.3857H57.375V69.2857H59.4482V69.3857H61.5214V69.2857H63.5946V69.3857H65.6677V69.2857H67.7409V69.3857H69.8141V69.2857H71.8873V69.3857H72.9239H73.055L73.0203 69.2592L72.775 68.3664L72.6786 68.3929L72.1881 66.6071L72.2846 66.5807L71.7941 64.7949L71.6977 64.8214L71.2072 63.0357L71.3036 63.0092L70.8131 61.2235L70.7167 61.25L70.2262 59.4643L70.3226 59.4378L69.8322 57.6521L69.7357 57.6786L69.2452 55.8929L69.3417 55.8664L69.0964 54.9735Z" stroke="#4F92FF" stroke-width="0.2" stroke-dasharray="2 2"/>
</g>
<defs>
<filter id="filter0_d_179_2475" x="0" y="0" width="90" height="90" filterUnits="userSpaceOnUse" color-interpolation-filters="sRGB">
<feFlood flood-opacity="0" result="BackgroundImageFix"/>
<feColorMatrix in="SourceAlpha" type="matrix" values="0 0 0 0 0 0 0 0 0 0 0 0 0 0 0 0 0 0 127 0" result="hardAlpha"/>
<feOffset dy="4"/>
<feGaussianBlur stdDeviation="2"/>
<feComposite in2="hardAlpha" operator="out"/>
<feColorMatrix type="matrix" values="0 0 0 0 0.0833333 0 0 0 0 0.0833333 0 0 0 0 0.0833333 0 0 0 0.37 0"/>
<feBlend mode="normal" in2="BackgroundImageFix" result="effect1_dropShadow_179_2475"/>
<feBlend mode="normal" in="SourceGraphic" in2="effect1_dropShadow_179_2475" result="shape"/>
</filter>
</defs>
</svg>
