<svg width="51" height="51" viewBox="0 0 51 51" fill="none" xmlns="http://www.w3.org/2000/svg">
<path d="M17.25 9H10.8333C9.825 9 9 9.825 9 10.8333C9 28.0483 22.9517 42 40.1667 42C41.175 42 42 41.175 42 40.1667V33.7683C42 32.76 41.175 31.935 40.1667 31.935C37.8933 31.935 35.675 31.5683 33.6217 30.89C33.4383 30.8167 33.2367 30.7983 33.0533 30.7983C32.5767 30.7983 32.1183 30.9817 31.7517 31.33L27.7183 35.3633C22.53 32.705 18.2767 28.47 15.6367 23.2817L19.67 19.2483C20.1833 18.735 20.33 18.02 20.1283 17.3783C19.45 15.325 19.0833 13.125 19.0833 10.8333C19.0833 9.825 18.2583 9 17.25 9Z" fill="#B4D1FF"/>
</svg>
