<svg width="51" height="51" viewBox="0 0 51 51" fill="none" xmlns="http://www.w3.org/2000/svg">
<path d="M6.68387 25.3197L15.6502 28.6611L19.1455 39.9002C19.2974 40.6596 20.2093 40.8115 20.8171 40.3558L25.8322 36.2551C26.2881 35.7995 27.0479 35.7995 27.6558 36.2551L36.6221 42.7859C37.2299 43.2416 38.1418 42.9378 38.2937 42.1784L44.9804 10.2836C45.1324 9.52421 44.3726 8.76482 43.6127 9.06858L6.68387 23.3453C5.77204 23.6491 5.77204 25.016 6.68387 25.3197ZM18.6896 26.9904L36.3181 16.2069C36.622 16.0551 36.926 16.5107 36.6221 16.6626L22.1849 30.1799C21.729 30.6355 21.273 31.243 21.273 32.0024L20.8171 35.6476C20.8171 36.1032 20.0573 36.2551 19.9053 35.6476L18.0817 28.9648C17.6257 28.2054 17.9297 27.2942 18.6896 26.9904Z" fill="white"/>
</svg>
